<?xml version="1.0" encoding="utf-8"?>
<!-- Generator: Adobe Illustrator 24.1.3, SVG Export Plug-In . SVG Version: 6.00 Build 0)  -->
<svg version="1.1" xmlns="http://www.w3.org/2000/svg" xmlns:xlink="http://www.w3.org/1999/xlink" x="0px" y="0px"
	 viewBox="0 0 675.1 675.1" style="enable-background:new 0 0 675.1 675.1;" xml:space="preserve">
<style type="text/css">
	.st0{display:none;}
	.st1{display:inline;opacity:0.2;}
	.st2{fill:none;stroke:#0033CC;stroke-width:0.25;stroke-linecap:round;stroke-linejoin:round;stroke-miterlimit:10;}
	.st3{display:inline;opacity:0.1;fill:#009CDD;}
	.st4{display:inline;}
	.st5{fill:none;stroke:#009CDD;stroke-miterlimit:10;}
	.st6{fill:#1E35D0;}
	.st7{display:inline;fill:none;stroke:#0033CC;stroke-width:25;stroke-linecap:round;stroke-linejoin:round;stroke-miterlimit:10;}
	.st8{fill:#0137CD;}
	.st9{display:inline;fill:none;stroke:#009CDD;stroke-miterlimit:10;}
	.st10{display:inline;fill:none;stroke:#1E35D0;stroke-width:25;stroke-linecap:round;stroke-linejoin:round;stroke-miterlimit:10;}
	.st11{fill:#0072BC;}
	.st12{clip-path:url(#SVGID_2_);}
	.st13{fill:none;stroke:#FFFFFF;stroke-width:25;stroke-miterlimit:10;}
	.st14{fill:#0072BC;stroke:#1E35D0;stroke-width:25;stroke-miterlimit:10;}
	.st15{fill:#0072BC;stroke:#FFFFFF;stroke-width:25;stroke-miterlimit:10;}
	.st16{fill:#0072BC;stroke:#0033CC;stroke-width:25;stroke-linecap:round;stroke-linejoin:round;stroke-miterlimit:10;}
	.st17{fill:#0072BC;stroke:#0033CC;stroke-width:25;stroke-miterlimit:10;}
	.st18{fill:#0072BC;stroke:#0033CC;stroke-width:25;stroke-linecap:round;stroke-miterlimit:10;}
</style>
<g id="Layer_2" class="st0">
	<g class="st1">
		<line class="st2" x1="300.7" y1="-0.8" x2="300.7" y2="673.3"/>
		<line class="st2" x1="350.7" y1="-0.8" x2="350.7" y2="673.3"/>
		<line class="st2" x1="325.7" y1="-0.8" x2="325.7" y2="673.3"/>
		<line class="st2" x1="375.7" y1="-0.8" x2="375.7" y2="673.3"/>
		<line class="st2" x1="400.7" y1="-0.8" x2="400.7" y2="673.3"/>
		<line class="st2" x1="425.7" y1="-0.8" x2="425.7" y2="673.3"/>
		<line class="st2" x1="450.7" y1="-0.8" x2="450.7" y2="673.3"/>
		<line class="st2" x1="475.7" y1="-0.8" x2="475.7" y2="673.3"/>
		<line class="st2" x1="500.7" y1="-0.8" x2="500.7" y2="673.3"/>
		<line class="st2" x1="525.7" y1="-0.8" x2="525.7" y2="673.3"/>
		<line class="st2" x1="550.7" y1="-0.8" x2="550.7" y2="673.3"/>
		<line class="st2" x1="575.7" y1="-0.8" x2="575.7" y2="673.3"/>
		<line class="st2" x1="600.7" y1="-0.8" x2="600.7" y2="673.3"/>
		<line class="st2" x1="625.7" y1="-0.8" x2="625.7" y2="673.3"/>
		<line class="st2" x1="650.7" y1="-0.8" x2="650.7" y2="673.3"/>
		<line class="st2" x1="0.7" y1="-0.8" x2="0.7" y2="673.3"/>
		<line class="st2" x1="25.7" y1="-0.8" x2="25.7" y2="673.3"/>
		<line class="st2" x1="50.7" y1="-0.8" x2="50.7" y2="673.3"/>
		<line class="st2" x1="75.7" y1="-0.8" x2="75.7" y2="673.3"/>
		<line class="st2" x1="100.7" y1="-0.8" x2="100.7" y2="673.3"/>
		<line class="st2" x1="150.7" y1="-0.8" x2="150.7" y2="673.3"/>
		<line class="st2" x1="175.7" y1="-0.8" x2="175.7" y2="673.3"/>
		<line class="st2" x1="200.7" y1="-0.8" x2="200.7" y2="673.3"/>
		<line class="st2" x1="225.7" y1="-0.8" x2="225.7" y2="673.3"/>
		<line class="st2" x1="250.7" y1="-0.8" x2="250.7" y2="673.3"/>
		<line class="st2" x1="275.7" y1="-0.8" x2="275.7" y2="673.3"/>
	</g>
	<path class="st3" d="M338.3,300.3c26.2,0,55.8-18,55.8-67.6c0-47.8-32.4-86.5-55.8-102.7c-22.5,16.3-55.8,54.9-55.8,102.7
		C282.5,282.2,313.1,300.3,338.3,300.3 M338.3,559.8c126.1,0,242.4-95.5,242.4-242.4c0-132.5-95.5-212.5-166.7-206.3l11.7,11.7
		c17.2,18.9,45.1,65.8,45.1,117.1c0,82.9-64,135.2-132.5,135.2c-67.6,0-131.5-52.3-131.5-135.2c1-43.1,16.9-84.5,45-117.1l11.7-11.7
		c-71.2-6.2-167.6,73.9-167.6,206.3C95.9,464.5,213.1,559.8,338.3,559.8 M338.3,636.4C190.6,636.4,18.4,522,18.4,323.7
		C18.4,136.3,147.3,35.4,259,35.4c31.5,0,67.6,8.1,79.3,15.3c11.7-7.2,47.8-15.3,79.3-15.3c112.7,0,240.6,100.9,240.6,288.3
		C658.2,522,486.1,636.4,338.3,636.4z"/>
	<g class="st4">
		<circle class="st5" cx="339.1" cy="336.3" r="337"/>
		<circle class="st5" cx="339.1" cy="336.3" r="337"/>
		<ellipse class="st5" cx="339.1" cy="336.3" rx="312.9" ry="312.4"/>
		<circle class="st5" cx="339.1" cy="336.3" r="287.3"/>
		<circle class="st5" cx="339.1" cy="336.3" r="262.5"/>
		<circle class="st5" cx="337.9" cy="337.4" r="237.2"/>
		<circle class="st5" cx="338.2" cy="336.3" r="162.2"/>
		<circle class="st5" cx="338.2" cy="336.3" r="187.5"/>
		<circle class="st5" cx="338.2" cy="336.3" r="212.6"/>
		<circle class="st5" cx="339.1" cy="336.3" r="337"/>
		<circle class="st5" cx="339.1" cy="336.3" r="337"/>
		<circle class="st5" cx="338.2" cy="336.3" r="37.5"/>
		<circle class="st5" cx="338.2" cy="336.3" r="137.2"/>
		<circle class="st5" cx="338.2" cy="336.3" r="112.3"/>
		<circle class="st5" cx="338.2" cy="336.3" r="87.5"/>
		<circle class="st5" cx="338.2" cy="336.3" r="62.6"/>
	</g>
</g>
<g id="Layer_1">
</g>
<g id="Layer_3">
	<g>
		<g>
			<g>
				<g>
					<g>
						<g>
							<g>
								<g>
									<path class="st11" d="M339.7,674.7c-2.7,0-5.4-0.6-7.9-1.9l-0.7-0.4c0,0,0,0,0,0c-0.3-0.1-0.7-0.3-1-0.4l-1-0.5
										c-222.6-95-246.6-247.1-246.6-308.2v-248c0-8,5.4-14.9,13-16.9c84.8-21.5,223.2-56.7,237.7-61.1c0.2-0.1,0.3-0.1,0.5-0.2
										c2-0.8,4-1.2,6.1-1.2c1.8,0,3.3,0.3,4.2,0.5c0.5,0.1,1,0.2,1.5,0.4c0.3,0.1,0.6,0.2,0.9,0.3c15.5,4.5,162.4,42,237.7,61
										c7.8,2,13.1,9,13.1,17v248c0,61.1-24,213.3-246.9,308.3l-1,0.5c-0.3,0.2-0.7,0.3-1,0.4l-0.7,0.4
										C345.1,674.1,342.4,674.7,339.7,674.7z M329.8,671.7C329.8,671.7,329.8,671.7,329.8,671.7
										C329.8,671.7,329.8,671.7,329.8,671.7z M107.5,121.2v242.2c0,56.1,22.6,196.1,231.6,285.3c0.1,0.1,0.3,0.1,0.4,0.2l0.1,0.1
										l0.1-0.1c0.1-0.1,0.3-0.1,0.4-0.2c209.3-89.1,231.9-229.3,231.9-285.4V121C497.9,102.3,359.3,66.9,340,61.4
										C321.3,66.9,171.8,104.9,107.5,121.2z M338.2,48.8L338.2,48.8L338.2,48.8z"/>
								</g>
							</g>
						</g>
					</g>
				</g>
			</g>
		</g>
		<g>
			<g>
				<g>
					<g>
						<g>
							<g>
								<path class="st11" d="M339.9,518.1c-47.7,0-93.1-18.5-127.8-52.2c-35-34-54.3-78.8-54.3-126.2c0-98.3,80-178.3,178.3-178.3
									c98.3,0,178.3,80,178.3,178.3h-25c0-84.6-68.8-153.3-153.3-153.3c-84.5,0-153.3,68.8-153.3,153.3c0,40.6,16.6,79,46.7,108.2
									c30,29.1,69.2,45.1,110.4,45.1V518.1z"/>
							</g>
						</g>
					</g>
				</g>
			</g>
			<g>
				<g>
					<g>
						<g>
							<g>
								<path class="st11" d="M335,272c-44.8,0-87.8-9.8-127.9-29.2l10.9-22.5C254.6,238,294,247,335,247
									c42.3,0,82.8-9.5,120.3-28.3l11.2,22.4C425.5,261.6,381.2,272,335,272z"/>
							</g>
						</g>
					</g>
				</g>
			</g>
			<g>
				<g>
					<g>
						<g>
							<g>
								<path class="st11" d="M208.6,432.8l-11-22.4c43-21.1,89.2-31.8,137.4-31.8v25C290.6,403.6,248.1,413.4,208.6,432.8z"/>
							</g>
						</g>
					</g>
				</g>
			</g>
			<g>
				<g>
					<g>
						<g>
							<g>
								<path class="st11" d="M339.9,514.3c-28.5,0-57-19.7-78.4-53.9c-21.3-34.1-33-78.3-33-124.4c0-46.2,11-89.7,31-122.4
									c20.2-33.1,48.2-52.1,76.6-52.1c28.4,0,53,18.9,69.2,53.3c14.7,31,22.4,72.9,22.4,121.2h-25c0-44-7.1-83.3-20-110.5
									c-8.4-17.8-23.3-39-46.6-39c-19.5,0-39.6,14.6-55.2,40.2c-17.6,28.9-27.4,67.7-27.4,109.4c0,41.5,10.4,81,29.2,111.2
									c16.5,26.4,37.9,42.2,57.2,42.2V514.3z"/>
							</g>
						</g>
					</g>
				</g>
			</g>
			<g>
				<g>
					<g>
						<g>
							<g>
								<rect x="174.1" y="314.7" class="st11" width="323.9" height="25"/>
							</g>
						</g>
					</g>
				</g>
			</g>
			<g>
				<g>
					<g>
						<g>
							<g>
								<rect x="314.9" y="174" class="st11" width="25" height="323.9"/>
							</g>
						</g>
					</g>
				</g>
			</g>
		</g>
		<g>
			<g>
				<g>
					<g>
						<g>
							<path class="st11" d="M435.2,473.9c-17.4,0-33.8-10.8-40.1-28c-3.9-10.7-3.4-22.3,1.4-32.6c4.8-10.3,13.4-18.2,24.1-22.1
								c22.1-8.1,46.7,3.3,54.7,25.4c0,0,0,0,0,0c8.1,22.1-3.3,46.7-25.5,54.7C445,473.1,440.1,473.9,435.2,473.9z M435.2,413.6
								c-2,0-4.1,0.3-6,1.1c-4.4,1.6-8,4.9-10,9.2c-2,4.3-2.2,9.1-0.6,13.5c3.3,9.2,13.5,13.9,22.7,10.5
								c9.2-3.3,13.9-13.5,10.5-22.7l0,0C449.2,418,442.4,413.6,435.2,413.6z"/>
						</g>
					</g>
				</g>
			</g>
			<g>
				<g>
					<g>
						<g>
							<path class="st11" d="M441,518.1c-1.8,0-3.6-0.4-5.3-1.2c-3-1.4-5.3-3.9-6.5-7l-2.6-7.1c-2.6-0.3-5.2-0.8-7.8-1.3l-4.8,5.8
								c-4.4,5.3-12.3,6-17.6,1.6L365.7,483c-5.3-4.4-6-12.3-1.6-17.6l4.8-5.7c-0.5-1.2-1-2.4-1.5-3.7c-0.5-1.2-0.9-2.5-1.2-3.8
								l-7.4-1.3c-6.8-1.2-11.3-7.7-10.2-14.5l6.9-39.6c1.2-6.8,7.7-11.3,14.5-10.2l7.4,1.3c1.6-2.1,3.3-4.1,5.1-6L380,375
								c-1.1-3.1-1-6.6,0.4-9.6c1.4-3,3.9-5.3,7-6.5l37.7-13.8c3.1-1.1,6.6-1,9.6,0.4s5.3,3.9,6.5,7l2.6,7.1
								c2.6,0.3,5.2,0.8,7.8,1.3l4.8-5.8c4.4-5.3,12.3-6,17.6-1.6l30.8,25.8c5.3,4.4,6,12.3,1.6,17.6l-4.8,5.7
								c0.5,1.2,1,2.4,1.5,3.7l0,0c0.5,1.2,0.9,2.5,1.2,3.8l7.4,1.3c6.8,1.2,11.3,7.7,10.2,14.5l-6.9,39.6
								c-1.2,6.8-7.7,11.3-14.5,10.2l-7.4-1.3c-1.6,2.1-3.3,4.1-5.1,6l2.6,7.1c2.4,6.5-1,13.7-7.5,16l-37.7,13.8
								C443.9,517.9,442.4,518.1,441,518.1z M435.6,478.3c5.2,0,9.9,3.3,11.7,8.2l1.1,3l14.2-5.2l-1.1-3c-1.8-5-0.3-10.5,3.7-13.9
								c4.4-3.7,8-8,10.8-12.9c2.6-4.6,7.8-7,13-6.1l3.2,0.6l2.6-14.9l-3.2-0.6c-5.2-0.9-9.3-5-10.2-10.2c-0.5-3-1.2-5.7-2.1-8.2
								c0,0,0,0,0,0c-0.9-2.5-2.1-5-3.7-7.6c-2.7-4.6-2.2-10.3,1.2-14.3l2.1-2.5l-11.6-9.7l-2.1,2.5c-3.4,4-9,5.5-13.9,3.7
								c-5.3-1.9-10.9-2.9-16.6-2.9c0,0,0,0-0.1,0c-5.2,0-9.9-3.3-11.7-8.2l-1.1-3l-14.2,5.2l1.1,3c1.8,5,0.3,10.5-3.7,13.9
								c-4.4,3.7-8,8-10.8,12.9c-2.6,4.6-7.8,7.1-13,6.1l-3.2-0.6l-2.6,14.9l3.2,0.6c5.2,0.9,9.3,5,10.2,10.2c0.5,3,1.2,5.7,2.1,8.2
								c0.9,2.5,2.1,5,3.7,7.7c2.7,4.6,2.2,10.3-1.2,14.3l-2.1,2.5l11.6,9.7l2.1-2.5c3.4-4,9-5.5,13.9-3.7
								c5.2,1.9,10.7,2.9,16.3,2.9C435.3,478.3,435.4,478.3,435.6,478.3z"/>
						</g>
					</g>
				</g>
			</g>
		</g>
	</g>
</g>
<g id="Layer_4">
</g>
</svg>
