<?xml version="1.0" encoding="utf-8"?>
<!-- Generator: Adobe Illustrator 24.0.3, SVG Export Plug-In . SVG Version: 6.00 Build 0)  -->
<svg version="1.1" id="Layer_1" xmlns="http://www.w3.org/2000/svg" xmlns:xlink="http://www.w3.org/1999/xlink" x="0px" y="0px"
	 viewBox="0 0 675 675" style="enable-background:new 0 0 675 675;" xml:space="preserve">
<style type="text/css">
	.st0{display:none;}
	.st1{display:inline;}
	.st2{opacity:0.2;}
	.st3{fill:none;stroke:#344DA1;stroke-width:0.25;stroke-linecap:round;stroke-linejoin:round;stroke-miterlimit:10;}
	.st4{opacity:0.1;fill:#009BDA;enable-background:new    ;}
	.st5{fill:none;stroke:#009BDA;stroke-miterlimit:10;}
	.st6{fill:#0072BC;}
</style>
<g id="Grid" class="st0">
	<g class="st1">
		<g class="st2">
			<line class="st3" x1="299.1" y1="0.5" x2="299.1" y2="674.5"/>
			<line class="st3" x1="349.1" y1="0.5" x2="349.1" y2="674.5"/>
			<line class="st3" x1="324.1" y1="0.5" x2="324.1" y2="674.5"/>
			<line class="st3" x1="374.1" y1="0.5" x2="374.1" y2="674.5"/>
			<line class="st3" x1="399.1" y1="0.5" x2="399.1" y2="674.5"/>
			<line class="st3" x1="424.1" y1="0.5" x2="424.1" y2="674.5"/>
			<line class="st3" x1="449.1" y1="0.5" x2="449.1" y2="674.5"/>
			<line class="st3" x1="474.1" y1="0.5" x2="474.1" y2="674.5"/>
			<line class="st3" x1="499.1" y1="0.5" x2="499.1" y2="674.5"/>
			<line class="st3" x1="524.1" y1="0.5" x2="524.1" y2="674.5"/>
			<line class="st3" x1="549.1" y1="0.5" x2="549.1" y2="674.5"/>
			<line class="st3" x1="574.1" y1="0.5" x2="574.1" y2="674.5"/>
			<line class="st3" x1="599.1" y1="0.5" x2="599.1" y2="674.5"/>
			<line class="st3" x1="624.1" y1="0.5" x2="624.1" y2="674.5"/>
			<line class="st3" x1="649.1" y1="0.5" x2="649.1" y2="674.5"/>
			<line class="st3" x1="674.1" y1="0.5" x2="674.1" y2="674.5"/>
			<line class="st3" x1="24.1" y1="0.5" x2="24.1" y2="674.5"/>
			<line class="st3" x1="49.1" y1="0.5" x2="49.1" y2="674.5"/>
			<line class="st3" x1="74.1" y1="0.5" x2="74.1" y2="674.5"/>
			<line class="st3" x1="99.1" y1="0.5" x2="99.1" y2="674.5"/>
			<line class="st3" x1="124.1" y1="0.5" x2="124.1" y2="674.5"/>
			<line class="st3" x1="149.1" y1="0.5" x2="149.1" y2="674.5"/>
			<line class="st3" x1="174.1" y1="0.5" x2="174.1" y2="674.5"/>
			<line class="st3" x1="199.1" y1="0.5" x2="199.1" y2="674.5"/>
			<line class="st3" x1="224.1" y1="0.5" x2="224.1" y2="674.5"/>
			<line class="st3" x1="249.1" y1="0.5" x2="249.1" y2="674.5"/>
			<line class="st3" x1="274.1" y1="0.5" x2="274.1" y2="674.5"/>
		</g>
		<path class="st4" d="M336.8,301.5c26.2,0,55.8-18,55.8-67.6c0-47.8-32.4-86.5-55.8-102.7c-22.5,16.3-55.8,54.9-55.8,102.7
			C280.9,283.5,311.5,301.5,336.8,301.5 M336.8,561c126.1,0,242.4-95.5,242.4-242.4c0-132.5-95.5-212.5-166.7-206.3l11.7,11.7
			c17.2,18.9,45.1,65.8,45.1,117.1c0,82.9-64,135.2-132.5,135.2c-67.6,0-131.5-52.3-131.5-135.2c1-43.1,16.9-84.5,45-117.1
			l11.7-11.7c-71.2-6.2-167.6,73.9-167.6,206.3C94.4,465.7,211.5,561,336.8,561 M336.8,637.6C189,637.6,16.9,523.2,16.9,324.9
			c0-187.4,128.9-288.3,240.6-288.3c31.5,0,67.6,8.1,79.3,15.3c11.7-7.2,47.8-15.3,79.3-15.3c112.7,0,240.6,100.9,240.6,288.3
			C656.6,523.2,484.5,637.6,336.8,637.6z"/>
		<g>
			<circle class="st5" cx="337.5" cy="337.5" r="337"/>
			<circle class="st5" cx="337.5" cy="337.5" r="337"/>
			<ellipse class="st5" cx="337.5" cy="337.5" rx="312.9" ry="312.4"/>
			<circle class="st5" cx="337.5" cy="337.5" r="287.3"/>
			<circle class="st5" cx="337.5" cy="337.5" r="262.5"/>
			<circle class="st5" cx="336.3" cy="338.7" r="237.2"/>
			<circle class="st5" cx="336.6" cy="337.5" r="162.2"/>
			<circle class="st5" cx="336.6" cy="337.5" r="187.5"/>
			<circle class="st5" cx="336.6" cy="337.5" r="212.6"/>
			<circle class="st5" cx="337.5" cy="337.5" r="337"/>
			<circle class="st5" cx="337.5" cy="337.5" r="337"/>
			<circle class="st5" cx="336.6" cy="337.5" r="37.5"/>
			<circle class="st5" cx="336.6" cy="337.5" r="137.2"/>
			<circle class="st5" cx="336.6" cy="337.5" r="112.3"/>
			<circle class="st5" cx="336.6" cy="337.5" r="87.5"/>
			<circle class="st5" cx="336.6" cy="337.5" r="62.6"/>
		</g>
	</g>
</g>
<g>
	<g>
		<g>
			<path class="st6" d="M65.4,392.9C34.8,392.9,10,368,10,337.5s24.9-55.4,55.4-55.4s55.4,24.9,55.4,55.4S96,392.9,65.4,392.9z
				 M65.4,305.9c-17.5,0-31.6,14.2-31.6,31.6s14.2,31.6,31.6,31.6S97,354.9,97,337.5S82.9,305.9,65.4,305.9z"/>
		</g>
		<g>
			<path class="st6" d="M196,621.5c-30.6,0-55.4-24.9-55.4-55.4s24.9-55.4,55.4-55.4s55.4,24.9,55.4,55.4
				C251.5,596.6,226.6,621.5,196,621.5z M196,534.4c-17.5,0-31.6,14.2-31.6,31.6s14.2,31.6,31.6,31.6s31.6-14.2,31.6-31.6
				S213.5,534.4,196,534.4z"/>
		</g>
		<g>
			<path class="st6" d="M479,621.5c-30.6,0-55.4-24.9-55.4-55.4s24.9-55.4,55.4-55.4s55.4,24.9,55.4,55.4S509.5,621.5,479,621.5z
				 M479,534.4c-17.5,0-31.6,14.2-31.6,31.6s14.2,31.6,31.6,31.6s31.6-14.2,31.6-31.6S496.4,534.4,479,534.4z"/>
		</g>
		<g>
			<path class="st6" d="M196,164.5c-30.6,0-55.4-24.9-55.4-55.4s24.9-55.4,55.4-55.4s55.4,24.9,55.4,55.4S226.6,164.5,196,164.5z
				 M196,77.4c-17.5,0-31.6,14.2-31.6,31.6s14.2,31.6,31.6,31.6s31.6-14.2,31.6-31.6S213.5,77.4,196,77.4z"/>
		</g>
		<g>
			<path class="st6" d="M479,164.5c-30.6,0-55.4-24.9-55.4-55.4s24.9-55.4,55.4-55.4s55.4,24.9,55.4,55.4S509.5,164.5,479,164.5z
				 M479,77.4c-17.5,0-31.6,14.2-31.6,31.6s14.2,31.6,31.6,31.6s31.6-14.2,31.6-31.6S496.4,77.4,479,77.4z"/>
		</g>
		<g>
			<path class="st6" d="M609.6,392.9c-30.6,0-55.4-24.9-55.4-55.4s24.9-55.4,55.4-55.4S665,307,665,337.5S640.1,392.9,609.6,392.9z
				 M609.6,305.9c-17.5,0-31.6,14.2-31.6,31.6s14.2,31.6,31.6,31.6c17.4,0,31.6-14.2,31.6-31.6C641.2,320.1,626.9,305.9,609.6,305.9
				z"/>
		</g>
		<g>
			<path class="st6" d="M435.5,578h-196c-6.6,0-11.9-5.3-11.9-11.9s5.3-11.9,11.9-11.9h195.9c6.6,0,11.9,5.3,11.9,11.9
				S442.1,578,435.5,578z"/>
		</g>
		<g>
			<path class="st6" d="M174.6,540.3c-4.1,0-8.2-2.2-10.4-6L76.6,381.1c-3.2-5.7-1.2-13,4.5-16.3c5.7-3.2,13-1.2,16.3,4.5L185,522.6
				c3.2,5.7,1.2,13-4.5,16.3C178.6,539.8,176.6,540.3,174.6,540.3z"/>
		</g>
		<g>
			<path class="st6" d="M86.9,311.8c-2,0-4-0.5-5.9-1.5c-5.7-3.2-7.7-10.6-4.5-16.3l87.6-153.3c3.2-5.7,10.6-7.7,16.3-4.5
				s7.7,10.6,4.5,16.3L97.3,305.8C95.1,309.6,91.1,311.8,86.9,311.8z"/>
		</g>
		<g>
			<path class="st6" d="M435.5,120.9h-196c-6.6,0-11.9-5.3-11.9-11.9s5.3-12,11.9-12h195.9c6.6,0,11.9,5.3,11.9,11.9
				S442.1,120.9,435.5,120.9z"/>
		</g>
		<g>
			<path class="st6" d="M588.1,311.8c-4.1,0-8.2-2.2-10.4-6l-87.6-153.3c-3.2-5.7-1.2-13,4.5-16.3c5.7-3.2,13-1.2,16.3,4.5
				l87.5,153.2c3.2,5.7,1.2,13-4.5,16.3C592.1,311.3,590.1,311.8,588.1,311.8z"/>
		</g>
		<g>
			<path class="st6" d="M500.4,540.3c-2,0-4-0.5-5.9-1.5c-5.7-3.2-7.7-10.6-4.5-16.3l87.6-153.3c3.2-5.7,10.6-7.7,16.3-4.5
				s7.7,10.6,4.5,16.3l-87.6,153.3C508.6,538.1,504.6,540.3,500.4,540.3z"/>
		</g>
		<g>
			<path class="st6" d="M257.3,219.8c-4,0-7.9-2-10.1-5.6l-38.3-62c-3.4-5.6-1.7-13,3.8-16.4c5.6-3.4,13-1.7,16.4,3.8l38.3,62
				c3.4,5.6,1.7,13-3.8,16.4C261.6,219.2,259.4,219.8,257.3,219.8z"/>
		</g>
		<g>
			<path class="st6" d="M456.2,541.1c-4,0-7.9-2-10.1-5.6l-38.8-62.7c-3.4-5.6-1.7-13,3.8-16.4c5.6-3.4,13-1.7,16.4,3.8l38.8,62.7
				c3.4,5.6,1.7,13-3.8,16.4C460.5,540.5,458.3,541.1,456.2,541.1z"/>
		</g>
		<g>
			<path class="st6" d="M566.1,349.4h-63.3c-6.6,0-11.9-5.3-11.9-11.9s5.3-11.9,11.9-11.9h63.3c6.6,0,11.9,5.3,11.9,11.9
				S572.7,349.4,566.1,349.4z"/>
		</g>
		<g>
			<path class="st6" d="M174.6,349.4H109c-6.6,0-11.9-5.3-11.9-11.9s5.3-11.9,11.9-11.9h65.5c6.6,0,11.9,5.3,11.9,11.9
				S181.1,349.4,174.6,349.4z"/>
		</g>
		<g>
			<path class="st6" d="M420.1,215.9c-2.1,0-4.3-0.6-6.3-1.8c-5.6-3.4-7.3-10.8-3.8-16.4l36-58.1c3.4-5.6,10.8-7.3,16.4-3.8
				c5.6,3.4,7.3,10.8,3.8,16.4l-36,58.1C428,213.9,424.1,215.9,420.1,215.9z"/>
		</g>
		<g>
			<path class="st6" d="M218.8,541.1c-2.1,0-4.3-0.6-6.3-1.8c-5.6-3.4-7.3-10.8-3.8-16.4l37.6-60.7c3.4-5.6,10.8-7.3,16.4-3.8
				c5.6,3.4,7.3,10.8,3.8,16.4l-37.6,60.7C226.7,539.1,222.8,541.1,218.8,541.1z"/>
		</g>
	</g>
	<g>
		<g>
			<path class="st6" d="M337.5,501c-43.7,0-84.7-17-115.6-47.9S174,381.2,174,337.5s17-84.7,47.9-115.6S293.8,174,337.5,174
				s84.7,17,115.6,47.9S501,293.8,501,337.5s-17,84.7-47.9,115.6l0,0l0,0C422.2,484,381.2,501,337.5,501z M337.5,197.8
				c-37.3,0-72.4,14.5-98.7,40.9c-26.3,26.3-40.9,61.4-40.9,98.7s14.5,72.4,40.9,98.7c26.3,26.3,61.4,40.9,98.7,40.9
				s72.4-14.5,98.7-40.9l0,0c26.3-26.3,40.9-61.4,40.9-98.7s-14.5-72.4-40.9-98.7C409.9,212.3,374.8,197.8,337.5,197.8z"/>
		</g>
		<g>
			<path class="st6" d="M274.5,475.7c-19.6,0-36.4-5.8-48.7-18.1c-37.2-37.2-15.4-117.2,49.6-182.2s145-86.8,182.2-49.6
				S473.1,343,408.1,408C364.5,451.6,314.1,475.7,274.5,475.7z M409,231.5c-8.7,0-18.3,1.5-28.9,4.8c-29.4,8.8-60.6,28.7-88,56.1
				s-47.2,58.6-56.1,88c-8,26.8-5.7,48.4,6.5,60.6s33.7,14.5,60.6,6.5c29.4-8.8,60.6-28.7,88-56.1s47.2-58.6,56.1-88
				c8-26.8,5.7-48.4-6.5-60.6C433.4,235.2,422.5,231.5,409,231.5z"/>
		</g>
		<g>
			<path class="st6" d="M357.3,499.7c-5.7,0-10.7-4.1-11.7-9.8c-5.6-32-27.8-69.8-59.1-101.3c-31.4-31.4-69.3-53.5-101.3-59.1
				c-6.5-1.1-10.8-7.3-9.6-13.8s7.3-10.8,13.8-9.6c37.2,6.5,78.7,30.5,114,65.7c35.3,35.3,59.2,76.8,65.7,114
				c1.1,6.5-3.2,12.7-9.6,13.8C358.7,499.7,358,499.7,357.3,499.7z"/>
		</g>
		<g>
			<path class="st6" d="M487.8,369.3c-0.7,0-1.3-0.1-2.1-0.2c-37.2-6.6-78.7-30.5-114-65.7c-35.3-35.3-59.2-76.8-65.7-114
				c-1.1-6.5,3.1-12.7,9.6-13.8s12.7,3.1,13.8,9.6c5.6,32,27.8,69.8,59.1,101.2s69.3,53.5,101.3,59.1c6.5,1.1,10.8,7.3,9.6,13.8
				C498.4,365.2,493.5,369.3,487.8,369.3z"/>
		</g>
		<g>
			<path class="st6" d="M230.4,456.6c-3.1,0-6.1-1.1-8.4-3.5c-4.7-4.7-4.7-12.2,0-16.9l214.3-214.3c4.7-4.7,12.2-4.7,16.9,0
				c4.7,4.7,4.7,12.2,0,16.9L238.8,453.1C236.5,455.4,233.4,456.6,230.4,456.6z"/>
		</g>
		<g>
			<path class="st6" d="M444.6,456.6c-3.1,0-6.1-1.1-8.4-3.5L221.9,238.8c-4.7-4.7-4.7-12.2,0-16.9s12.2-4.7,16.9,0l214.4,214.4
				c4.7,4.7,4.7,12.2,0,16.9C450.7,455.4,447.7,456.6,444.6,456.6z"/>
		</g>
	</g>
</g>
</svg>
