<?xml version="1.0" encoding="utf-8"?>
<!-- Generator: Adobe Illustrator 25.0.1, SVG Export Plug-In . SVG Version: 6.00 Build 0)  -->
<svg version="1.1" id="Layer_1" xmlns="http://www.w3.org/2000/svg" xmlns:xlink="http://www.w3.org/1999/xlink" x="0px" y="0px"
	 viewBox="0 0 675 675" style="enable-background:new 0 0 675 675;" xml:space="preserve">
<style type="text/css">
	.st0{display:none;}
	.st1{display:inline;opacity:0.2;}
	.st2{fill:none;stroke:#0033CC;stroke-width:0.25;stroke-linecap:round;stroke-linejoin:round;stroke-miterlimit:10;}
	.st3{display:inline;opacity:0.1;fill:#009CDD;enable-background:new    ;}
	.st4{display:inline;}
	.st5{fill:none;stroke:#009CDD;stroke-miterlimit:10;}
	.st6{fill:#0172BA;}
</style>
<g id="Layer_2_1_" class="st0">
	<g class="st1">
		<line class="st2" x1="299.1" y1="0.5" x2="299.1" y2="674.5"/>
		<line class="st2" x1="349.1" y1="0.5" x2="349.1" y2="674.5"/>
		<line class="st2" x1="324.1" y1="0.5" x2="324.1" y2="674.5"/>
		<line class="st2" x1="374.1" y1="0.5" x2="374.1" y2="674.5"/>
		<line class="st2" x1="399.1" y1="0.5" x2="399.1" y2="674.5"/>
		<line class="st2" x1="424.1" y1="0.5" x2="424.1" y2="674.5"/>
		<line class="st2" x1="449.1" y1="0.5" x2="449.1" y2="674.5"/>
		<line class="st2" x1="474.1" y1="0.5" x2="474.1" y2="674.5"/>
		<line class="st2" x1="499.1" y1="0.5" x2="499.1" y2="674.5"/>
		<line class="st2" x1="524.1" y1="0.5" x2="524.1" y2="674.5"/>
		<line class="st2" x1="549.1" y1="0.5" x2="549.1" y2="674.5"/>
		<line class="st2" x1="574.1" y1="0.5" x2="574.1" y2="674.5"/>
		<line class="st2" x1="599.1" y1="0.5" x2="599.1" y2="674.5"/>
		<line class="st2" x1="624.1" y1="0.5" x2="624.1" y2="674.5"/>
		<line class="st2" x1="649.1" y1="0.5" x2="649.1" y2="674.5"/>
		<line class="st2" x1="674.1" y1="0.5" x2="674.1" y2="674.5"/>
		<line class="st2" x1="24.1" y1="0.5" x2="24.1" y2="674.5"/>
		<line class="st2" x1="49.1" y1="0.5" x2="49.1" y2="674.5"/>
		<line class="st2" x1="74.1" y1="0.5" x2="74.1" y2="674.5"/>
		<line class="st2" x1="99.1" y1="0.5" x2="99.1" y2="674.5"/>
		<line class="st2" x1="149.1" y1="0.5" x2="149.1" y2="674.5"/>
		<line class="st2" x1="174.1" y1="0.5" x2="174.1" y2="674.5"/>
		<line class="st2" x1="199.1" y1="0.5" x2="199.1" y2="674.5"/>
		<line class="st2" x1="224.1" y1="0.5" x2="224.1" y2="674.5"/>
		<line class="st2" x1="249.1" y1="0.5" x2="249.1" y2="674.5"/>
		<line class="st2" x1="274.1" y1="0.5" x2="274.1" y2="674.5"/>
	</g>
	<path class="st3" d="M336.8,301.5c26.2,0,55.8-18,55.8-67.6c0-47.8-32.4-86.5-55.8-102.7c-22.5,16.3-55.8,54.9-55.8,102.7
		C280.9,283.5,311.5,301.5,336.8,301.5 M336.8,561c126.1,0,242.4-95.5,242.4-242.4c0-132.5-95.5-212.5-166.7-206.3l11.7,11.7
		c17.2,18.9,45.1,65.8,45.1,117.1c0,82.9-64,135.2-132.5,135.2c-67.6,0-131.5-52.3-131.5-135.2c1-43.1,16.9-84.5,45-117.1l11.7-11.7
		c-71.2-6.2-167.6,73.9-167.6,206.3C94.4,465.7,211.5,561,336.8,561 M336.8,637.6C189,637.6,16.9,523.2,16.9,324.9
		c0-187.4,128.9-288.3,240.6-288.3c31.5,0,67.6,8.1,79.3,15.3c11.7-7.2,47.8-15.3,79.3-15.3c112.7,0,240.6,100.9,240.6,288.3
		C656.6,523.2,484.5,637.6,336.8,637.6z"/>
	<g class="st4">
		<circle class="st5" cx="337.5" cy="337.5" r="337"/>
		<circle class="st5" cx="337.5" cy="337.5" r="337"/>
		<ellipse class="st5" cx="337.5" cy="337.5" rx="312.9" ry="312.4"/>
		<circle class="st5" cx="337.5" cy="337.5" r="287.3"/>
		<circle class="st5" cx="337.5" cy="337.5" r="262.5"/>
		<circle class="st5" cx="336.3" cy="338.7" r="237.2"/>
		<circle class="st5" cx="336.6" cy="337.5" r="162.2"/>
		<circle class="st5" cx="336.6" cy="337.5" r="187.5"/>
		<circle class="st5" cx="336.6" cy="337.5" r="212.6"/>
		<circle class="st5" cx="337.5" cy="337.5" r="337"/>
		<circle class="st5" cx="337.5" cy="337.5" r="337"/>
		<circle class="st5" cx="336.6" cy="337.5" r="37.5"/>
		<circle class="st5" cx="336.6" cy="337.5" r="137.2"/>
		<circle class="st5" cx="336.6" cy="337.5" r="112.3"/>
		<circle class="st5" cx="336.6" cy="337.5" r="87.5"/>
		<circle class="st5" cx="336.6" cy="337.5" r="62.6"/>
	</g>
</g>
<g id="Layer_3">
</g>
<g id="Layer_4">
</g>
<g id="Layer_2_21_">
	<g>
		<g>
			<path class="st6" d="M288.8,317.2H181.1c-6.5,0-11.7-5.2-11.7-11.7s5.2-11.7,11.7-11.7h107.7c6.5,0,11.7,5.2,11.7,11.7
				S295.2,317.2,288.8,317.2z"/>
		</g>
		<g>
			<path class="st6" d="M131.8,473.9c-1.2,0-2.5-0.2-3.7-0.6l-99.5-33.3c-6.1-2.1-9.4-8.5-7.5-14.6l57.9-184.3
				c0.9-3,3.1-5.5,5.8-6.9c2.8-1.4,6.1-1.7,9-0.7l99.5,33.2c6.1,2.1,9.4,8.5,7.5,14.6l-57.8,184.3c-0.9,3-3.1,5.5-5.8,6.9
				C135.4,473.6,133.6,473.9,131.8,473.9z M46.8,421.5l77.2,25.8l50.7-162l-77.2-25.8L46.8,421.5z"/>
		</g>
		<g>
			<path class="st6" d="M541.3,473.9c-1.9,0-3.7-0.5-5.3-1.3c-2.8-1.4-4.9-3.9-5.8-6.9l-57.8-184.3c-1.9-6.1,1.4-12.5,7.5-14.6
				l99.5-33.2c3-1,6.3-0.7,9,0.7c2.8,1.4,4.9,3.9,5.8,6.9L652,425.4c1.9,6.1-1.4,12.5-7.5,14.6l-99.4,33.3
				C543.8,473.8,542.6,473.9,541.3,473.9z M498.1,285.5l50.7,162l77.2-25.8l-50.7-162L498.1,285.5z"/>
		</g>
		<g>
			<path class="st6" d="M479.6,478.5c-3.4,0-6.7-1.5-9.1-4.3c-4.1-5-3.4-12.4,1.7-16.5l50.1-41c5-4.1,12.4-3.4,16.5,1.7
				c4.1,5,3.4,12.4-1.7,16.5l-50.1,41C484.9,477.6,482.2,478.5,479.6,478.5z"/>
		</g>
		<g>
			<path class="st6" d="M195.7,511c-0.7,0-1.5,0-2.2-0.1c-8.5-0.6-16.3-4.5-21.9-11l0,0c-11.6-13.3-10.2-33.5,3.1-45.1l22.9-19.9
				c13.3-11.6,33.5-10.2,45.1,3.1c11.6,13.3,10.2,33.5-3.1,45.1l-22.9,19.9C210.8,508.2,203.4,511,195.7,511z M189.2,484.6
				c1.5,1.7,3.6,2.8,5.9,2.9c2.2,0.2,4.5-0.6,6.3-2.1l22.9-19.9c3.6-3.1,3.9-8.5,0.8-12.1c-3.1-3.6-8.5-3.9-12.1-0.8l-23,19.9
				C186.5,475.6,186.1,481.1,189.2,484.6L189.2,484.6z"/>
		</g>
		<g>
			<path class="st6" d="M230,535c-0.7,0-1.5,0-2.2-0.1c-8.5-0.6-16.3-4.5-21.9-11l0,0c-5.6-6.5-8.3-14.7-7.8-23.2
				c0.6-8.5,4.5-16.3,11-21.9l22.9-19.9c13.3-11.6,33.5-10.2,45.1,3.1c11.6,13.3,10.2,33.5-3.1,45.1L251.1,527
				C245.1,532.2,237.7,535,230,535z M252.9,474.4c-2,0-4,0.7-5.6,2.1l-22.9,19.9c-1.7,1.5-2.8,3.6-2.9,5.9c-0.1,2.3,0.6,4.5,2.1,6.3
				l0,0c1.5,1.7,3.6,2.8,5.9,2.9c2.2,0.2,4.5-0.6,6.3-2.1l22.9-19.9c3.6-3.1,3.9-8.5,0.8-12.1C257.7,475.4,255.3,474.4,252.9,474.4z
				"/>
		</g>
		<g>
			<path class="st6" d="M264.3,558.9c-0.7,0-1.5,0-2.2-0.1c-8.5-0.6-16.3-4.5-21.9-11l0,0c-5.6-6.5-8.3-14.7-7.8-23.2
				s4.5-16.3,11-21.9l22.9-19.9c13.3-11.6,33.5-10.2,45.1,3.1c11.6,13.3,10.2,33.5-3.1,45.1l-22.9,19.9
				C279.3,556.2,272,558.9,264.3,558.9z M287.2,498.4c-2,0-4,0.7-5.6,2.1l-22.9,19.9c-1.7,1.5-2.8,3.6-2.9,5.9
				c-0.2,2.2,0.6,4.5,2.1,6.3l0,0c1.5,1.7,3.6,2.8,5.9,2.9c2.2,0.2,4.5-0.6,6.3-2.1l22.9-19.9c3.6-3.1,3.9-8.5,0.8-12.1
				C292,499.3,289.5,498.4,287.2,498.4z"/>
		</g>
		<g>
			<path class="st6" d="M298.5,582.8c-0.7,0-1.5,0-2.2-0.1c-8.5-0.6-16.3-4.5-21.9-11l0,0c-11.6-13.3-10.2-33.5,3.1-45.1l22.9-19.9
				c13.3-11.6,33.5-10.2,45.1,3.1c5.6,6.5,8.3,14.7,7.8,23.2c-0.6,8.5-4.5,16.3-11,21.9l-22.9,19.9
				C313.6,580.1,306.3,582.8,298.5,582.8z M292.1,556.5c1.5,1.7,3.6,2.8,5.9,2.9c2.2,0.2,4.5-0.6,6.3-2.1l22.9-19.9
				c1.7-1.5,2.8-3.6,2.9-5.9c0.2-2.2-0.6-4.5-2.1-6.3c-3.1-3.6-8.5-3.9-12.1-0.8L293,544.4C289.4,547.4,289,552.9,292.1,556.5
				L292.1,556.5z"/>
		</g>
		<g>
			<path class="st6" d="M356,591.2c-8.9,0-17.6-2.8-24.6-7.9l-19.2-14.1c-5.2-3.8-6.4-11.1-2.5-16.4c3.8-5.2,11.1-6.4,16.4-2.5
				l19.1,14c2.9,2.2,6.7,3.4,10.9,3.3c3.8,0,8.1-1.1,11.8-3.2c0.1-0.1,0.2-0.1,0.3-0.2l114.5-58.1c3.3-1.7,4.3-5.1,4.6-7
				c0.7-4.4-0.8-9-4.2-12.4L373.1,378.1h-35.5c-6.4,11.4-19.3,34.6-22.8,40.2c-11.1,17.6-31.6,25.6-52.2,20.3
				c-8.9-2.3-16.3-8.2-20.7-16.8c-4.9-9.3-5.6-20.4-2-30.6c0,0,0-0.1,0.1-0.1l29.8-79.6c0.1-0.3,0.2-0.6,0.3-0.7
				c0.6-1.2,3.7-7.6,10.9-14c6.7-6,18.4-13.1,36-13.1h172c6.5,0,11.7,5.2,11.7,11.7c0,6.5-5.2,11.7-11.7,11.7H316.9
				c-17.3,0-24.2,11-25.4,13.3L262,399.2c-1.4,3.9-1.2,8.2,0.7,11.7c0.7,1.5,2.6,4.1,5.9,5c10.6,2.7,20.8-1.1,26.5-10.1
				c3.5-5.4,19.6-34.4,25.4-45c2.1-3.7,6-6.1,10.2-6.1h47.2c3.1,0,6,1.2,8.2,3.4l113.6,112.2c8.6,8.6,12.6,20.8,10.9,32.6
				c-1.7,10.7-7.9,19.6-17,24.3L379,585.1c-7.1,3.8-15.2,5.9-22.8,6C356.1,591.2,356.1,591.2,356,591.2z"/>
		</g>
		<g>
			<path class="st6" d="M185.2,472.9c-2.4,0-4.9-0.7-6.9-2.2L135.2,439c-5.2-3.8-6.4-11.1-2.5-16.4s11.1-6.4,16.4-2.5l43.1,31.6
				c5.2,3.8,6.4,11.1,2.5,16.4C192.4,471.2,188.8,472.9,185.2,472.9z"/>
		</g>
	</g>
</g>
</svg>
