<?xml version="1.0" encoding="utf-8"?>
<!-- Generator: Adobe Illustrator 24.0.3, SVG Export Plug-In . SVG Version: 6.00 Build 0)  -->
<svg version="1.1" id="Layer_1" xmlns="http://www.w3.org/2000/svg" xmlns:xlink="http://www.w3.org/1999/xlink" x="0px" y="0px"
	 viewBox="0 0 675 675" style="enable-background:new 0 0 675 675;" xml:space="preserve">
<style type="text/css">
	.st0{display:none;}
	.st1{display:inline;}
	.st2{opacity:0.2;}
	.st3{fill:none;stroke:#344DA1;stroke-width:0.25;stroke-linecap:round;stroke-linejoin:round;stroke-miterlimit:10;}
	.st4{opacity:0.1;fill:#009BDA;enable-background:new    ;}
	.st5{fill:none;stroke:#009BDA;stroke-miterlimit:10;}
	.st6{fill:#0072BC;}
</style>
<g id="Grid" class="st0">
	<g class="st1">
		<g class="st2">
			<line class="st3" x1="299.1" y1="0.5" x2="299.1" y2="674.5"/>
			<line class="st3" x1="349.1" y1="0.5" x2="349.1" y2="674.5"/>
			<line class="st3" x1="324.1" y1="0.5" x2="324.1" y2="674.5"/>
			<line class="st3" x1="374.1" y1="0.5" x2="374.1" y2="674.5"/>
			<line class="st3" x1="399.1" y1="0.5" x2="399.1" y2="674.5"/>
			<line class="st3" x1="424.1" y1="0.5" x2="424.1" y2="674.5"/>
			<line class="st3" x1="449.1" y1="0.5" x2="449.1" y2="674.5"/>
			<line class="st3" x1="474.1" y1="0.5" x2="474.1" y2="674.5"/>
			<line class="st3" x1="499.1" y1="0.5" x2="499.1" y2="674.5"/>
			<line class="st3" x1="524.1" y1="0.5" x2="524.1" y2="674.5"/>
			<line class="st3" x1="549.1" y1="0.5" x2="549.1" y2="674.5"/>
			<line class="st3" x1="574.1" y1="0.5" x2="574.1" y2="674.5"/>
			<line class="st3" x1="599.1" y1="0.5" x2="599.1" y2="674.5"/>
			<line class="st3" x1="624.1" y1="0.5" x2="624.1" y2="674.5"/>
			<line class="st3" x1="649.1" y1="0.5" x2="649.1" y2="674.5"/>
			<line class="st3" x1="674.1" y1="0.5" x2="674.1" y2="674.5"/>
			<line class="st3" x1="24.1" y1="0.5" x2="24.1" y2="674.5"/>
			<line class="st3" x1="49.1" y1="0.5" x2="49.1" y2="674.5"/>
			<line class="st3" x1="74.1" y1="0.5" x2="74.1" y2="674.5"/>
			<line class="st3" x1="99.1" y1="0.5" x2="99.1" y2="674.5"/>
			<line class="st3" x1="124.1" y1="0.5" x2="124.1" y2="674.5"/>
			<line class="st3" x1="149.1" y1="0.5" x2="149.1" y2="674.5"/>
			<line class="st3" x1="174.1" y1="0.5" x2="174.1" y2="674.5"/>
			<line class="st3" x1="199.1" y1="0.5" x2="199.1" y2="674.5"/>
			<line class="st3" x1="224.1" y1="0.5" x2="224.1" y2="674.5"/>
			<line class="st3" x1="249.1" y1="0.5" x2="249.1" y2="674.5"/>
			<line class="st3" x1="274.1" y1="0.5" x2="274.1" y2="674.5"/>
		</g>
		<path class="st4" d="M336.8,301.5c26.2,0,55.8-18,55.8-67.6c0-47.8-32.4-86.5-55.8-102.7c-22.5,16.3-55.8,54.9-55.8,102.7
			C280.9,283.5,311.5,301.5,336.8,301.5 M336.8,561c126.1,0,242.4-95.5,242.4-242.4c0-132.5-95.5-212.5-166.7-206.3l11.7,11.7
			c17.2,18.9,45.1,65.8,45.1,117.1c0,82.9-64,135.2-132.5,135.2c-67.6,0-131.5-52.3-131.5-135.2c1-43.1,16.9-84.5,45-117.1
			l11.7-11.7c-71.2-6.2-167.6,73.9-167.6,206.3C94.4,465.7,211.5,561,336.8,561 M336.8,637.6C189,637.6,16.9,523.2,16.9,324.9
			c0-187.4,128.9-288.3,240.6-288.3c31.5,0,67.6,8.1,79.3,15.3c11.7-7.2,47.8-15.3,79.3-15.3c112.7,0,240.6,100.9,240.6,288.3
			C656.6,523.2,484.5,637.6,336.8,637.6z"/>
		<g>
			<circle class="st5" cx="337.5" cy="337.5" r="337"/>
			<circle class="st5" cx="337.5" cy="337.5" r="337"/>
			<ellipse class="st5" cx="337.5" cy="337.5" rx="312.9" ry="312.4"/>
			<circle class="st5" cx="337.5" cy="337.5" r="287.3"/>
			<circle class="st5" cx="337.5" cy="337.5" r="262.5"/>
			<circle class="st5" cx="336.3" cy="338.7" r="237.2"/>
			<circle class="st5" cx="336.6" cy="337.5" r="162.2"/>
			<circle class="st5" cx="336.6" cy="337.5" r="187.5"/>
			<circle class="st5" cx="336.6" cy="337.5" r="212.6"/>
			<circle class="st5" cx="337.5" cy="337.5" r="337"/>
			<circle class="st5" cx="337.5" cy="337.5" r="337"/>
			<circle class="st5" cx="336.6" cy="337.5" r="37.5"/>
			<circle class="st5" cx="336.6" cy="337.5" r="137.2"/>
			<circle class="st5" cx="336.6" cy="337.5" r="112.3"/>
			<circle class="st5" cx="336.6" cy="337.5" r="87.5"/>
			<circle class="st5" cx="336.6" cy="337.5" r="62.6"/>
		</g>
	</g>
</g>
<g id="Layer_2_1_">
	<g>
		<g>
			<g>
				<g>
					<g>
						<path class="st6" d="M566.9,488.3c-6.9,0-12.5-5.6-12.5-12.5v-23.3l-51.2-8.7c-4.9-0.8-8.8-4.4-10-9.2
							c-3.8-14.8-9.7-28.9-17.4-42c-2.5-4.3-2.3-9.6,0.6-13.7l30.1-42l-31.3-31.3l-42,30.1c-4,2.9-9.4,3.1-13.7,0.6
							c-13.2-7.8-27.4-13.7-42.3-17.5c-4.8-1.2-8.4-5.2-9.3-10.1l-8.4-51h-44.2l-8.4,51c-0.8,4.9-4.4,8.9-9.3,10.1
							c-14.8,3.8-28.9,9.6-42,17.3c-4.2,2.5-9.6,2.3-13.6-0.6l-42.3-30l-31.4,31.4l30,42.3c2.9,4,3.1,9.4,0.6,13.6
							c-7.7,13.1-13.6,27.2-17.3,42c-1.2,4.8-5.2,8.4-10.1,9.3l-51,8.4v23.3c0,6.9-5.6,12.5-12.5,12.5s-12.5-5.6-12.5-12.5v-33.9
							c0-6.1,4.4-11.3,10.5-12.3l53.6-8.8c3.5-11.6,8.1-22.8,13.8-33.5L142,342.8c-3.5-5-3-11.8,1.4-16.1l46.3-46.3
							c4.3-4.3,11.1-4.9,16.1-1.4l44.5,31.5c10.7-5.7,21.9-10.3,33.5-13.8l8.8-53.6c1-6,6.2-10.5,12.3-10.5h65.4
							c6.1,0,11.3,4.4,12.3,10.5l8.8,53.6c11.7,3.5,23,8.2,33.8,14l44.1-31.7c5-3.6,11.8-3,16.1,1.3l46.3,46.3
							c4.3,4.3,4.9,11.2,1.3,16.1L501.3,387c5.7,10.6,10.3,21.8,13.9,33.4l53.8,9.2c6,1,10.4,6.2,10.4,12.3v33.9
							C579.4,482.7,573.8,488.3,566.9,488.3z"/>
					</g>
				</g>
			</g>
			<g>
				<path class="st6" d="M414.7,488.3c-6.9,0-12.5-5.6-12.5-12.5c0-17.4-6.8-33.9-19-46.4c-12.3-12.5-28.5-19.4-45.7-19.4
					s-33.4,6.9-45.7,19.4c-12.3,12.5-19,29-19,46.4c0,6.9-5.6,12.5-12.5,12.5s-12.5-5.6-12.5-12.5c0-24,9.3-46.7,26.2-63.9
					c17-17.4,39.6-27,63.5-27s46.5,9.6,63.5,27c16.9,17.2,26.2,39.9,26.2,63.9C427.2,482.7,421.6,488.3,414.7,488.3z"/>
			</g>
		</g>
		<g>
			<g>
				<path class="st6" d="M602.5,498.5h-530c-6.9,0-12.5-5.6-12.5-12.5V114.6c0-6.9,5.6-12.5,12.5-12.5h530c6.9,0,12.5,5.6,12.5,12.5
					V486C615,492.9,609.4,498.5,602.5,498.5z M85,473.5h505V127.1H85V473.5z"/>
			</g>
			<g>
				<path class="st6" d="M393.6,572.9H281.4c-6.9,0-12.5-5.6-12.5-12.5V486c0-6.9,5.6-12.5,12.5-12.5h112.2
					c6.9,0,12.5,5.6,12.5,12.5v74.3C406.1,567.3,400.5,572.9,393.6,572.9z M293.9,547.9h87.2v-49.3h-87.2L293.9,547.9L293.9,547.9z"
					/>
			</g>
			<g>
				<path class="st6" d="M442.8,572.9H232.2c-6.9,0-12.5-5.6-12.5-12.5s5.6-12.5,12.5-12.5h210.7c6.9,0,12.5,5.6,12.5,12.5
					S449.7,572.9,442.8,572.9z"/>
			</g>
		</g>
	</g>
</g>
</svg>
