<?xml version="1.0" encoding="utf-8"?>
<!-- Generator: Adobe Illustrator 24.0.3, SVG Export Plug-In . SVG Version: 6.00 Build 0)  -->
<svg version="1.1" id="Layer_1" xmlns="http://www.w3.org/2000/svg" xmlns:xlink="http://www.w3.org/1999/xlink" x="0px" y="0px"
	 viewBox="0 0 675 675" style="enable-background:new 0 0 675 675;" xml:space="preserve">
<style type="text/css">
	.st0{display:none;}
	.st1{display:inline;}
	.st2{opacity:0.2;}
	.st3{fill:none;stroke:#344DA1;stroke-width:0.25;stroke-linecap:round;stroke-linejoin:round;stroke-miterlimit:10;}
	.st4{opacity:0.1;fill:#009BDA;enable-background:new    ;}
	.st5{fill:none;stroke:#009BDA;stroke-miterlimit:10;}
	.st6{fill:#0072BC;}
</style>
<g id="Grid" class="st0">
	<g class="st1">
		<g class="st2">
			<line class="st3" x1="299.1" y1="0.5" x2="299.1" y2="674.5"/>
			<line class="st3" x1="349.1" y1="0.5" x2="349.1" y2="674.5"/>
			<line class="st3" x1="324.1" y1="0.5" x2="324.1" y2="674.5"/>
			<line class="st3" x1="374.1" y1="0.5" x2="374.1" y2="674.5"/>
			<line class="st3" x1="399.1" y1="0.5" x2="399.1" y2="674.5"/>
			<line class="st3" x1="424.1" y1="0.5" x2="424.1" y2="674.5"/>
			<line class="st3" x1="449.1" y1="0.5" x2="449.1" y2="674.5"/>
			<line class="st3" x1="474.1" y1="0.5" x2="474.1" y2="674.5"/>
			<line class="st3" x1="499.1" y1="0.5" x2="499.1" y2="674.5"/>
			<line class="st3" x1="524.1" y1="0.5" x2="524.1" y2="674.5"/>
			<line class="st3" x1="549.1" y1="0.5" x2="549.1" y2="674.5"/>
			<line class="st3" x1="574.1" y1="0.5" x2="574.1" y2="674.5"/>
			<line class="st3" x1="599.1" y1="0.5" x2="599.1" y2="674.5"/>
			<line class="st3" x1="624.1" y1="0.5" x2="624.1" y2="674.5"/>
			<line class="st3" x1="649.1" y1="0.5" x2="649.1" y2="674.5"/>
			<line class="st3" x1="674.1" y1="0.5" x2="674.1" y2="674.5"/>
			<line class="st3" x1="24.1" y1="0.5" x2="24.1" y2="674.5"/>
			<line class="st3" x1="49.1" y1="0.5" x2="49.1" y2="674.5"/>
			<line class="st3" x1="74.1" y1="0.5" x2="74.1" y2="674.5"/>
			<line class="st3" x1="99.1" y1="0.5" x2="99.1" y2="674.5"/>
			<line class="st3" x1="124.1" y1="0.5" x2="124.1" y2="674.5"/>
			<line class="st3" x1="149.1" y1="0.5" x2="149.1" y2="674.5"/>
			<line class="st3" x1="174.1" y1="0.5" x2="174.1" y2="674.5"/>
			<line class="st3" x1="199.1" y1="0.5" x2="199.1" y2="674.5"/>
			<line class="st3" x1="224.1" y1="0.5" x2="224.1" y2="674.5"/>
			<line class="st3" x1="249.1" y1="0.5" x2="249.1" y2="674.5"/>
			<line class="st3" x1="274.1" y1="0.5" x2="274.1" y2="674.5"/>
		</g>
		<path class="st4" d="M336.8,301.5c26.2,0,55.8-18,55.8-67.6c0-47.8-32.4-86.5-55.8-102.7c-22.5,16.3-55.8,54.9-55.8,102.7
			C280.9,283.5,311.5,301.5,336.8,301.5 M336.8,561c126.1,0,242.4-95.5,242.4-242.4c0-132.5-95.5-212.5-166.7-206.3l11.7,11.7
			c17.2,18.9,45.1,65.8,45.1,117.1c0,82.9-64,135.2-132.5,135.2c-67.6,0-131.5-52.3-131.5-135.2c1-43.1,16.9-84.5,45-117.1
			l11.7-11.7c-71.2-6.2-167.6,73.9-167.6,206.3C94.4,465.7,211.5,561,336.8,561 M336.8,637.6C189,637.6,16.9,523.2,16.9,324.9
			c0-187.4,128.9-288.3,240.6-288.3c31.5,0,67.6,8.1,79.3,15.3c11.7-7.2,47.8-15.3,79.3-15.3c112.7,0,240.6,100.9,240.6,288.3
			C656.6,523.2,484.5,637.6,336.8,637.6z"/>
		<g>
			<circle class="st5" cx="337.5" cy="337.5" r="337"/>
			<circle class="st5" cx="337.5" cy="337.5" r="337"/>
			<ellipse class="st5" cx="337.5" cy="337.5" rx="312.9" ry="312.4"/>
			<circle class="st5" cx="337.5" cy="337.5" r="287.3"/>
			<circle class="st5" cx="337.5" cy="337.5" r="262.5"/>
			<circle class="st5" cx="336.3" cy="338.7" r="237.2"/>
			<circle class="st5" cx="336.6" cy="337.5" r="162.2"/>
			<circle class="st5" cx="336.6" cy="337.5" r="187.5"/>
			<circle class="st5" cx="336.6" cy="337.5" r="212.6"/>
			<circle class="st5" cx="337.5" cy="337.5" r="337"/>
			<circle class="st5" cx="337.5" cy="337.5" r="337"/>
			<circle class="st5" cx="336.6" cy="337.5" r="37.5"/>
			<circle class="st5" cx="336.6" cy="337.5" r="137.2"/>
			<circle class="st5" cx="336.6" cy="337.5" r="112.3"/>
			<circle class="st5" cx="336.6" cy="337.5" r="87.5"/>
			<circle class="st5" cx="336.6" cy="337.5" r="62.6"/>
		</g>
	</g>
</g>
<g id="Layer_2_1_">
	<g>
		<g>
			<path class="st6" d="M583.3,463.6h-15.2c-6.9,0-12.5-5.6-12.5-12.5s5.6-12.5,12.5-12.5h15.2c33.6,0,61.6-27,62.3-60.2
				c0-0.5,0-1,0-1.5c0-26.2-16.7-49.7-41.5-58.3c-6.2-2.1-9.7-8.7-8-15c3.8-14.4,5.7-29.3,5.7-44.3c0-96-78.1-174-174-174
				c-30.3,0-60.1,7.9-86.2,22.8c-25.3,14.5-46.8,35.3-62.1,60.2c-1.8,2.9-4.7,5-8.1,5.7s-6.8,0-9.7-1.9
				c-19.6-13.5-42.7-20.4-66.6-20.1c-62.4,0.8-113.3,52.2-113.5,114.7c-0.1,19.4,4.8,38.6,14,55.5c2.2,4.1,2,9-0.5,12.9
				c-2.6,3.9-7,6-11.7,5.5c-1.6-0.2-3.3-0.2-5-0.2c-13.2,0-25.7,5.2-35,14.6s-14.3,21.9-14.2,35.2c0.3,26.7,22.8,48.5,50.1,48.5
				h31.1c6.9,0,12.5,5.6,12.5,12.5s-5.6,12.5-12.5,12.5H79.5c-40.9,0-74.5-32.8-75.1-73.2c-0.3-20,7.3-38.8,21.4-53.1
				c11-11.1,24.8-18.3,39.9-21c-6-15.9-9-32.8-9-49.9c0.2-76,62.2-138.6,138.2-139.6c24.8-0.3,48.9,5.8,70.2,17.8
				c16.8-23.8,38.8-43.8,64.1-58.3c29.9-17.1,64-26.1,98.6-26.1c109.8,0,199,89.3,199,199c0,13.5-1.4,26.9-4,40.1
				c29,14.5,47.8,44.4,47.8,77.5c0,0.7,0,1.3,0,2c-0.5,22.8-9.9,44.1-26.4,60.1C627.8,454.9,606.1,463.6,583.3,463.6z"/>
		</g>
		<g>
			<g>
				<path class="st6" d="M233.4,527.2H113.7c-6.9,0-12.5-5.6-12.5-12.5v-83.9c0-6.9,5.6-12.5,12.5-12.5h119.7
					c6.9,0,12.5,5.6,12.5,12.5v83.9C245.9,521.6,240.3,527.2,233.4,527.2z M126.2,502.2h94.7v-58.9h-94.7V502.2z"/>
			</g>
			<g>
				<path class="st6" d="M208.6,569.9h-70.1c-6.9,0-12.5-5.6-12.5-12.5s5.6-12.5,12.5-12.5h70.1c6.9,0,12.5,5.6,12.5,12.5
					S215.5,569.9,208.6,569.9z"/>
			</g>
			<g>
				<path class="st6" d="M173.6,569c-6.9,0-12.5-5.6-12.5-12.5v-40.7c0-6.9,5.6-12.5,12.5-12.5s12.5,5.6,12.5,12.5v40.7
					C186.1,563.4,180.5,569,173.6,569z"/>
			</g>
		</g>
		<g>
			<g>
				<path class="st6" d="M399.3,527.2H279.5c-6.9,0-12.5-5.6-12.5-12.5v-83.9c0-6.9,5.6-12.5,12.5-12.5h119.7
					c6.9,0,12.5,5.6,12.5,12.5v83.9C411.8,521.6,406.2,527.2,399.3,527.2z M292,502.2h94.7v-58.9H292V502.2z"/>
			</g>
			<g>
				<path class="st6" d="M374.5,569.9h-70.1c-6.9,0-12.5-5.6-12.5-12.5s5.6-12.5,12.5-12.5h70.1c6.9,0,12.5,5.6,12.5,12.5
					S381.4,569.9,374.5,569.9z"/>
			</g>
			<g>
				<path class="st6" d="M339.4,569c-6.9,0-12.5-5.6-12.5-12.5v-40.7c0-6.9,5.6-12.5,12.5-12.5s12.5,5.6,12.5,12.5v40.7
					C351.9,563.4,346.3,569,339.4,569z"/>
			</g>
		</g>
		<g>
			<g>
				<path class="st6" d="M565.1,527.2H445.4c-6.9,0-12.5-5.6-12.5-12.5v-83.9c0-6.9,5.6-12.5,12.5-12.5h119.7
					c6.9,0,12.5,5.6,12.5,12.5v83.9C577.6,521.6,572,527.2,565.1,527.2z M457.9,502.2h94.7v-58.9h-94.7L457.9,502.2L457.9,502.2z"/>
			</g>
			<g>
				<path class="st6" d="M540.3,569.9h-70.1c-6.9,0-12.5-5.6-12.5-12.5s5.6-12.5,12.5-12.5h70.1c6.9,0,12.5,5.6,12.5,12.5
					S547.2,569.9,540.3,569.9z"/>
			</g>
			<g>
				<path class="st6" d="M505.3,569c-6.9,0-12.5-5.6-12.5-12.5v-40.7c0-6.9,5.6-12.5,12.5-12.5c6.9,0,12.5,5.6,12.5,12.5v40.7
					C517.8,563.4,512.2,569,505.3,569z"/>
			</g>
		</g>
		<g>
			<path class="st6" d="M168.4,443.3c-4.6,0-9.1-2.6-11.2-7c-3-6.2-0.5-13.7,5.7-16.7l155.8-76.3l-148.9-81.2
				c-6.1-3.3-8.3-10.9-5-17s10.9-8.3,17-5l164.5,89.7l153.5-75.1c3.9-1.9,8.5-1.7,12.1,0.6c3.7,2.3,5.9,6.3,5.9,10.6v164.9
				c0,4.4-2.3,8.5-6.1,10.7c-3.8,2.3-8.5,2.3-12.4,0.2l-153.7-83.8l-171.7,84C172.1,442.9,170.3,443.3,168.4,443.3z M373.2,344.5
				l119.6,65.2V285.9L373.2,344.5z"/>
		</g>
		<g>
			<path class="st6" d="M336.3,443.3c-6.9,0-12.5-5.6-12.5-12.5V251.1c0-4.6,2.6-8.9,6.6-11l140.1-74.3c6.1-3.2,13.7-0.9,16.9,5.2
				c3.2,6.1,0.9,13.7-5.2,16.9l-133.4,70.8v172.1C348.8,437.7,343.2,443.3,336.3,443.3z"/>
		</g>
		<g>
			<path class="st6" d="M149.1,275.1c-20.5,0-37.1-16.6-37.1-37.1s16.6-37.1,37.1-37.1s37.1,16.6,37.1,37.1S169.6,275.1,149.1,275.1
				z M149.1,225.9c-6.7,0-12.1,5.4-12.1,12.1s5.4,12.1,12.1,12.1c6.7,0,12.1-5.4,12.1-12.1S155.8,225.9,149.1,225.9z"/>
		</g>
		<g>
			<path class="st6" d="M499.1,204.6c-20.5,0-37.1-16.6-37.1-37.1s16.6-37.1,37.1-37.1c20.5,0,37.1,16.6,37.1,37.1
				C536.2,187.9,519.6,204.6,499.1,204.6z M499.1,155.4c-6.7,0-12.1,5.4-12.1,12.1c0,6.7,5.4,12.1,12.1,12.1s12.1-5.4,12.1-12.1
				C511.2,160.8,505.8,155.4,499.1,155.4z"/>
		</g>
	</g>
</g>
</svg>
