<?xml version="1.0" encoding="utf-8"?>
<!-- Generator: Adobe Illustrator 24.1.3, SVG Export Plug-In . SVG Version: 6.00 Build 0)  -->
<svg version="1.1" xmlns="http://www.w3.org/2000/svg" xmlns:xlink="http://www.w3.org/1999/xlink" x="0px" y="0px"
	 viewBox="0 0 675 675" style="enable-background:new 0 0 675 675;" xml:space="preserve">
<style type="text/css">
	.st0{display:none;}
	.st1{display:inline;opacity:0.2;}
	.st2{fill:none;stroke:#0033CC;stroke-width:0.25;stroke-linecap:round;stroke-linejoin:round;stroke-miterlimit:10;}
	.st3{display:inline;opacity:0.1;fill:#009CDD;}
	.st4{display:inline;}
	.st5{fill:none;stroke:#009CDD;stroke-miterlimit:10;}
	.st6{fill:#1E35D0;}
	.st7{display:inline;fill:none;stroke:#0033CC;stroke-width:25;stroke-linecap:round;stroke-linejoin:round;stroke-miterlimit:10;}
	.st8{fill:#0137CD;}
	.st9{display:inline;fill:none;stroke:#009CDD;stroke-miterlimit:10;}
	.st10{display:inline;fill:none;stroke:#1E35D0;stroke-width:25;stroke-linecap:round;stroke-linejoin:round;stroke-miterlimit:10;}
	.st11{fill:#0072BC;}
	.st12{clip-path:url(#SVGID_2_);}
	.st13{fill:none;stroke:#FFFFFF;stroke-width:25;stroke-miterlimit:10;}
	.st14{fill:#0072BC;stroke:#1E35D0;stroke-width:25;stroke-miterlimit:10;}
	.st15{fill:#0072BC;stroke:#FFFFFF;stroke-width:25;stroke-miterlimit:10;}
	.st16{fill:#0072BC;stroke:#0033CC;stroke-width:25;stroke-linecap:round;stroke-linejoin:round;stroke-miterlimit:10;}
	.st17{fill:#0072BC;stroke:#0033CC;stroke-width:25;stroke-miterlimit:10;}
	.st18{fill:#0072BC;stroke:#0033CC;stroke-width:25;stroke-linecap:round;stroke-miterlimit:10;}
</style>
<g id="Layer_2" class="st0">
	<g class="st1">
		<line class="st2" x1="299.1" y1="0.5" x2="299.1" y2="674.5"/>
		<line class="st2" x1="349.1" y1="0.5" x2="349.1" y2="674.5"/>
		<line class="st2" x1="324.1" y1="0.5" x2="324.1" y2="674.5"/>
		<line class="st2" x1="374.1" y1="0.5" x2="374.1" y2="674.5"/>
		<line class="st2" x1="399.1" y1="0.5" x2="399.1" y2="674.5"/>
		<line class="st2" x1="424.1" y1="0.5" x2="424.1" y2="674.5"/>
		<line class="st2" x1="449.1" y1="0.5" x2="449.1" y2="674.5"/>
		<line class="st2" x1="474.1" y1="0.5" x2="474.1" y2="674.5"/>
		<line class="st2" x1="499.1" y1="0.5" x2="499.1" y2="674.5"/>
		<line class="st2" x1="524.1" y1="0.5" x2="524.1" y2="674.5"/>
		<line class="st2" x1="549.1" y1="0.5" x2="549.1" y2="674.5"/>
		<line class="st2" x1="574.1" y1="0.5" x2="574.1" y2="674.5"/>
		<line class="st2" x1="599.1" y1="0.5" x2="599.1" y2="674.5"/>
		<line class="st2" x1="624.1" y1="0.5" x2="624.1" y2="674.5"/>
		<line class="st2" x1="649.1" y1="0.5" x2="649.1" y2="674.5"/>
		<line class="st2" x1="674.1" y1="0.5" x2="674.1" y2="674.5"/>
		<line class="st2" x1="24.1" y1="0.5" x2="24.1" y2="674.5"/>
		<line class="st2" x1="49.1" y1="0.5" x2="49.1" y2="674.5"/>
		<line class="st2" x1="74.1" y1="0.5" x2="74.1" y2="674.5"/>
		<line class="st2" x1="99.1" y1="0.5" x2="99.1" y2="674.5"/>
		<line class="st2" x1="149.1" y1="0.5" x2="149.1" y2="674.5"/>
		<line class="st2" x1="174.1" y1="0.5" x2="174.1" y2="674.5"/>
		<line class="st2" x1="199.1" y1="0.5" x2="199.1" y2="674.5"/>
		<line class="st2" x1="224.1" y1="0.5" x2="224.1" y2="674.5"/>
		<line class="st2" x1="249.1" y1="0.5" x2="249.1" y2="674.5"/>
		<line class="st2" x1="274.1" y1="0.5" x2="274.1" y2="674.5"/>
	</g>
	<path class="st3" d="M336.8,301.5c26.2,0,55.8-18,55.8-67.6c0-47.8-32.4-86.5-55.8-102.7c-22.5,16.3-55.8,54.9-55.8,102.7
		C280.9,283.5,311.5,301.5,336.8,301.5 M336.8,561c126.1,0,242.4-95.5,242.4-242.4c0-132.5-95.5-212.5-166.7-206.3l11.7,11.7
		c17.2,18.9,45.1,65.8,45.1,117.1c0,82.9-64,135.2-132.5,135.2c-67.6,0-131.5-52.3-131.5-135.2c1-43.1,16.9-84.5,45-117.1l11.7-11.7
		c-71.2-6.2-167.6,73.9-167.6,206.3C94.4,465.7,211.5,561,336.8,561 M336.8,637.6C189,637.6,16.9,523.2,16.9,324.9
		c0-187.4,128.9-288.3,240.6-288.3c31.5,0,67.6,8.1,79.3,15.3c11.7-7.2,47.8-15.3,79.3-15.3c112.7,0,240.6,100.9,240.6,288.3
		C656.6,523.2,484.5,637.6,336.8,637.6z"/>
	<g class="st4">
		<circle class="st5" cx="337.5" cy="337.5" r="337"/>
		<circle class="st5" cx="337.5" cy="337.5" r="337"/>
		<ellipse class="st5" cx="337.5" cy="337.5" rx="312.9" ry="312.4"/>
		<circle class="st5" cx="337.5" cy="337.5" r="287.3"/>
		<circle class="st5" cx="337.5" cy="337.5" r="262.5"/>
		<circle class="st5" cx="336.3" cy="338.7" r="237.2"/>
		<circle class="st5" cx="336.6" cy="337.5" r="162.2"/>
		<circle class="st5" cx="336.6" cy="337.5" r="187.5"/>
		<circle class="st5" cx="336.6" cy="337.5" r="212.6"/>
		<circle class="st5" cx="337.5" cy="337.5" r="337"/>
		<circle class="st5" cx="337.5" cy="337.5" r="337"/>
		<circle class="st5" cx="336.6" cy="337.5" r="37.5"/>
		<circle class="st5" cx="336.6" cy="337.5" r="137.2"/>
		<circle class="st5" cx="336.6" cy="337.5" r="112.3"/>
		<circle class="st5" cx="336.6" cy="337.5" r="87.5"/>
		<circle class="st5" cx="336.6" cy="337.5" r="62.6"/>
	</g>
</g>
<g id="Layer_1">
	<g>
		<g>
			<g>
				<g>
					<g>
						<g>
							<path class="st11" d="M144,371.1c0-31.2,18-59.4,45.7-72.8c2.3-55.2,48-99.4,103.7-99.4c23.6,0,46.7,8.1,65,22.9
								c13.5,10.9,24.1,25.1,30.7,41c9.3-4.5,19.5-6.9,29.8-6.9c38.3,0,69.5,31.2,69.5,69.5c0,3.9-0.4,7.7-1,11.5
								c26.6,5.4,46.6,28.9,46.6,57c0,32-26,58.1-58.1,58.1h-251C180.3,452,144,415.7,144,371.1z M475.9,360.8h-4.7
								c-4.3,0-8.2-2.2-10.5-5.7c-2.3-3.6-2.7-8-1-11.9c2.5-5.7,3.8-11.7,3.8-17.8c0-24.5-19.9-44.5-44.5-44.5
								c-13.2,0-22.8,5.8-28.6,10.7c-3.3,2.8-7.9,3.7-12,2.3s-7.2-4.9-8.2-9.1c-4-17.1-13.7-32.5-27.4-43.6
								c-14.1-11.4-31.1-17.4-49.3-17.4c-43.5,0-78.8,35.4-78.8,78.8c0,0.4,0.1,1,0.1,1.6c0,0.6,0.1,1.2,0.1,1.8
								c0.2,5.5-3.2,10.5-8.4,12.3c-22.4,7.8-37.5,29-37.5,52.7c0,30.8,25.1,55.9,55.9,55.9h251c18.2,0,33.1-14.9,33.1-33.1
								s-14.8-33.1-33.1-33.1V360.8z"/>
						</g>
					</g>
				</g>
			</g>
		</g>
	</g>
	<g>
		<g>
			<g>
				<g>
					<g>
						<g>
							<path class="st11" d="M89.6,439.2c-5.1,0-9.9-3.1-11.7-8.2c-6.7-18.2-11.5-37.2-14.2-56.4c-1-6.8,3.8-13.2,10.6-14.1
								c6.8-1,13.2,3.8,14.1,10.6c2.5,17.5,6.8,34.8,12.9,51.3c2.4,6.5-0.9,13.7-7.4,16.1C92.5,439,91.1,439.2,89.6,439.2z"/>
						</g>
					</g>
				</g>
			</g>
		</g>
	</g>
	<g>
		<g>
			<g>
				<g>
					<g>
						<g>
							<path class="st11" d="M581.5,439.2c-1.4,0-2.9-0.2-4.3-0.8c-6.5-2.4-9.8-9.6-7.4-16.1c6.1-16.5,10.4-33.7,12.9-51.1
								c1-6.8,7.3-11.6,14.1-10.6s11.6,7.3,10.6,14.1c-2.7,19.2-7.5,38.1-14.2,56.3C591.3,436.1,586.6,439.2,581.5,439.2z"/>
						</g>
					</g>
				</g>
			</g>
		</g>
	</g>
	<g>
		<g>
			<g>
				<g>
					<g>
						<g>
							<path class="st11" d="M536.7,552.4c-26.9,0-48.8-21.9-48.8-48.8c0-26.9,21.9-48.8,48.8-48.8s48.8,21.9,48.8,48.8
								S563.6,552.4,536.7,552.4z M536.7,479.7c-13.1,0-23.8,10.7-23.8,23.8s10.7,23.8,23.8,23.8s23.8-10.7,23.8-23.8
								C560.5,490.4,549.8,479.7,536.7,479.7z"/>
						</g>
					</g>
				</g>
			</g>
		</g>
	</g>
	<g>
		<g>
			<g>
				<g>
					<g>
						<g>
							<path class="st11" d="M138.2,552.4c-26.9,0-48.8-21.9-48.8-48.8c0-26.9,21.9-48.8,48.8-48.8s48.8,21.9,48.8,48.8
								S165.1,552.4,138.2,552.4z M138.2,479.7c-13.1,0-23.8,10.7-23.8,23.8s10.7,23.8,23.8,23.8s23.8-10.7,23.8-23.8
								C162,490.4,151.3,479.7,138.2,479.7z"/>
						</g>
					</g>
				</g>
			</g>
		</g>
	</g>
	<g>
		<g>
			<g>
				<g>
					<g>
						<g>
							<path class="st11" d="M335.6,610.5c-51.1,0-101-14.1-144.2-40.9c-5.9-3.6-7.7-11.3-4.1-17.2c3.6-5.9,11.3-7.7,17.2-4.1
								c39.3,24.3,84.6,37.2,131.1,37.2s91.8-12.8,131.1-37.2c5.9-3.6,13.6-1.8,17.2,4.1c3.6,5.9,1.8,13.6-4.1,17.2
								C436.5,596.4,386.6,610.5,335.6,610.5z"/>
						</g>
					</g>
				</g>
			</g>
		</g>
	</g>
	<g>
		<g>
			<g>
				<g>
					<g>
						<g>
							<path class="st11" d="M89.6,235.5c-5.1,0-9.9,3.1-11.7,8.2c-6.7,18.2-11.5,37.2-14.2,56.4c-1,6.8,3.8,13.2,10.6,14.1
								c6.8,1,13.2-3.8,14.1-10.6c2.5-17.5,6.8-34.8,12.9-51.3c2.4-6.5-0.9-13.7-7.4-16.1C92.5,235.7,91.1,235.5,89.6,235.5z"/>
						</g>
					</g>
				</g>
			</g>
		</g>
	</g>
	<g>
		<g>
			<g>
				<g>
					<g>
						<g>
							<path class="st11" d="M156.1,142c-4.6-2.1-10.3-1.3-14.1,2.6c-13.7,13.8-26,29-36.4,45.4c-3.7,5.8-2,13.6,3.8,17.2
								c5.8,3.7,13.6,2,17.2-3.8c9.6-14.9,20.7-28.8,33.1-41.3c4.9-4.9,4.9-12.8,0-17.7C158.6,143.4,157.4,142.7,156.1,142z"/>
						</g>
					</g>
				</g>
			</g>
		</g>
	</g>
	<g>
		<g>
			<g>
				<g>
					<g>
						<g>
							<path class="st11" d="M517.3,142c4.6-2.1,10.3-1.3,14.1,2.6c13.7,13.8,26,29,36.4,45.4c3.7,5.8,2,13.6-3.8,17.2
								c-5.8,3.7-13.6,2-17.2-3.8c-9.6-14.9-20.7-28.8-33.1-41.3c-4.9-4.9-4.9-12.8,0-17.7C514.7,143.4,515.9,142.7,517.3,142z"/>
						</g>
					</g>
				</g>
			</g>
		</g>
	</g>
	<g>
		<g>
			<g>
				<g>
					<g>
						<g>
							<path class="st11" d="M581.5,235.5c-1.4,0-2.9,0.2-4.3,0.8c-6.5,2.4-9.8,9.6-7.4,16.1c6.1,16.5,10.4,33.7,12.9,51.1
								c1,6.8,7.3,11.6,14.1,10.6s11.6-7.3,10.6-14.1c-2.7-19.2-7.5-38.1-14.2-56.3C591.3,238.6,586.6,235.5,581.5,235.5z"/>
						</g>
					</g>
				</g>
			</g>
		</g>
	</g>
	<g>
		<g>
			<g>
				<g>
					<g>
						<g>
							<g>
								<path class="st11" d="M348.1,178.9c-1.2,0.3-2.5,0.4-3.8,0.3l-31.1-3.9c-5.4-0.7-9.2-5.6-8.5-10.9l1-8.1
									c-2-1-3.9-2.1-5.8-3.2l-6.4,5c-2.1,1.6-4.7,2.3-7.3,2c-2.6-0.3-4.9-1.7-6.5-3.7l-19.2-24.7c-3.4-4.3-2.6-10.4,1.7-13.8
									l6.4-5c-0.7-2.1-1.2-4.2-1.7-6.4l-8.1-1c-5.4-0.7-9.2-5.6-8.5-10.9l3.9-31.1c0.3-2.6,1.7-4.9,3.7-6.5c2.1-1.6,4.7-2.3,7.3-2
									l8.1,1c1-2,2.1-3.9,3.2-5.8l-5-6.4c-3.4-4.3-2.6-10.4,1.7-13.8L298,10.7c2.1-1.6,4.7-2.3,7.3-2c2.6,0.3,4.9,1.7,6.5,3.7
									l5,6.4c2.1-0.7,4.2-1.2,6.4-1.7l1-8.1c0.3-2.6,1.7-4.9,3.7-6.5c2.1-1.6,4.7-2.3,7.3-2l31.1,3.9c5.4,0.7,9.2,5.6,8.5,10.9
									l-1,8.1c2,1,3.9,2.1,5.8,3.2l6.4-5c4.3-3.4,10.5-2.5,13.7,1.7l19.2,24.7c1.6,2.1,2.3,4.7,2,7.3s-1.7,4.9-3.7,6.5l-6.4,5
									c0.7,2.1,1.2,4.2,1.7,6.4l8.1,1c5.4,0.7,9.2,5.6,8.5,10.9l-3.9,31.1c-0.7,5.4-5.6,9.2-10.9,8.5l-8.1-1c-1,2-2.1,3.9-3.2,5.8
									l5,6.4c3.4,4.3,2.6,10.4-1.7,13.8l-24.7,19.2c-2.1,1.6-4.7,2.3-7.3,2c-2.6-0.3-4.9-1.7-6.5-3.7l-5-6.4c0,0,0,0-0.1,0
									c-3.8,1.2-6.6,4.4-7.1,8.4l-0.2,1.4c-0.3,2.6-1.7,4.9-3.7,6.5C350.6,178,349.3,178.6,348.1,178.9z M325.4,157l11.6,1.5
									l0.7-5.6c0.6-4.5,4.1-7.9,8.6-8.5c5.4-0.7,10.7-2.1,15.7-4.3c4.1-1.9,8.9-0.6,11.7,2.9l3.4,4.4l9.3-7.2l-3.4-4.4
									c-2.8-3.6-2.7-8.5,0-12.1c3.4-4.3,6.1-9,8-14.1c1.6-4.2,5.9-6.7,10.3-6.2l5.6,0.7l1.5-11.6l-5.6-0.7c-4.5-0.6-8-4.1-8.5-8.6
									c-0.7-5.4-2.1-10.7-4.3-15.7c-1.9-4.1-0.6-8.9,2.9-11.7l4.4-3.4l-7.2-9.2l-4.4,3.4c-3.6,2.8-8.5,2.7-12.1-0.1
									c-4.3-3.4-9-6.1-14.1-8c-4.2-1.6-6.7-5.9-6.2-10.3l0.7-5.6l-11.5-1.4l-0.7,5.6c-0.6,4.5-4.1,7.9-8.6,8.5
									c-5.4,0.7-10.7,2.1-15.7,4.3c-4.1,1.9-8.9,0.6-11.7-2.9l-3.4-4.4l-9.3,7.2l3.4,4.4c2.8,3.6,2.7,8.5,0,12.1
									c-3.3,4.2-6.1,9-8.1,14.1c-1.6,4.2-5.9,6.7-10.3,6.2l-5.6-0.7l-1.5,11.6l5.6,0.7c4.5,0.6,8,4.1,8.5,8.6
									c0.7,5.4,2.1,10.7,4.3,15.7c1.9,4.1,0.6,8.9-2.9,11.7l-4.4,3.4l7.2,9.3l4.4-3.4c3.6-2.8,8.5-2.7,12.1,0
									c4.3,3.4,9,6.1,14.1,8c4.2,1.6,6.7,5.9,6.2,10.3L325.4,157z"/>
							</g>
						</g>
					</g>
				</g>
			</g>
		</g>
		<g>
			<g>
				<g>
					<g>
						<g>
							<g>
								<path class="st11" d="M339.6,131.9c-5.3,0-10.8-1-16-3.1c-10.4-4.3-18.5-12.4-22.9-22.8c-4.3-10.4-4.4-21.9-0.1-32.3
									c4.3-10.4,12.4-18.5,22.8-22.9c10.4-4.3,21.9-4.4,32.3-0.1c21.5,8.9,31.9,33.6,23,55.1l0,0
									C372,122.1,356.1,131.9,339.6,131.9z M339.6,67.2c-3,0-5.9,0.5-8.7,1.7c-5.6,2.4-9.9,6.7-12.2,12.2
									c-2.3,5.6-2.3,11.7,0.1,17.3c2.4,5.6,6.7,9.9,12.2,12.2c11.5,4.7,24.7-0.8,29.5-12.3c4.7-11.5-0.8-24.7-12.3-29.5
									C345.4,67.7,342.5,67.2,339.6,67.2z M369.5,102L369.5,102L369.5,102z"/>
							</g>
						</g>
					</g>
				</g>
			</g>
		</g>
	</g>
</g>
<g id="Layer_3">
</g>
<g id="Layer_4">
</g>
</svg>
