<?xml version="1.0" encoding="utf-8"?>
<!-- Generator: Adobe Illustrator 25.0.1, SVG Export Plug-In . SVG Version: 6.00 Build 0)  -->
<svg version="1.1" id="Layer_1" xmlns="http://www.w3.org/2000/svg" xmlns:xlink="http://www.w3.org/1999/xlink" x="0px" y="0px"
	 viewBox="0 0 675 675" style="enable-background:new 0 0 675 675;" xml:space="preserve">
<style type="text/css">
	.st0{display:none;}
	.st1{display:inline;opacity:0.2;}
	.st2{fill:none;stroke:#0033CC;stroke-width:0.25;stroke-linecap:round;stroke-linejoin:round;stroke-miterlimit:10;}
	.st3{display:inline;opacity:0.1;fill:#009CDD;enable-background:new    ;}
	.st4{display:inline;}
	.st5{fill:none;stroke:#009CDD;stroke-miterlimit:10;}
	.st6{fill:none;}
	.st7{fill:none;stroke:#0A72BA;stroke-width:25;stroke-linecap:round;stroke-miterlimit:10;}
	.st8{fill:#FFFFFF;stroke:#0072BC;stroke-width:25;stroke-linejoin:round;stroke-miterlimit:10;}
</style>
<g id="Layer_2_1_" class="st0">
	<g class="st1">
		<line class="st2" x1="299.1" y1="0.5" x2="299.1" y2="674.5"/>
		<line class="st2" x1="349.1" y1="0.5" x2="349.1" y2="674.5"/>
		<line class="st2" x1="324.1" y1="0.5" x2="324.1" y2="674.5"/>
		<line class="st2" x1="374.1" y1="0.5" x2="374.1" y2="674.5"/>
		<line class="st2" x1="399.1" y1="0.5" x2="399.1" y2="674.5"/>
		<line class="st2" x1="424.1" y1="0.5" x2="424.1" y2="674.5"/>
		<line class="st2" x1="449.1" y1="0.5" x2="449.1" y2="674.5"/>
		<line class="st2" x1="474.1" y1="0.5" x2="474.1" y2="674.5"/>
		<line class="st2" x1="499.1" y1="0.5" x2="499.1" y2="674.5"/>
		<line class="st2" x1="524.1" y1="0.5" x2="524.1" y2="674.5"/>
		<line class="st2" x1="549.1" y1="0.5" x2="549.1" y2="674.5"/>
		<line class="st2" x1="574.1" y1="0.5" x2="574.1" y2="674.5"/>
		<line class="st2" x1="599.1" y1="0.5" x2="599.1" y2="674.5"/>
		<line class="st2" x1="624.1" y1="0.5" x2="624.1" y2="674.5"/>
		<line class="st2" x1="649.1" y1="0.5" x2="649.1" y2="674.5"/>
		<line class="st2" x1="674.1" y1="0.5" x2="674.1" y2="674.5"/>
		<line class="st2" x1="24.1" y1="0.5" x2="24.1" y2="674.5"/>
		<line class="st2" x1="49.1" y1="0.5" x2="49.1" y2="674.5"/>
		<line class="st2" x1="74.1" y1="0.5" x2="74.1" y2="674.5"/>
		<line class="st2" x1="99.1" y1="0.5" x2="99.1" y2="674.5"/>
		<line class="st2" x1="149.1" y1="0.5" x2="149.1" y2="674.5"/>
		<line class="st2" x1="174.1" y1="0.5" x2="174.1" y2="674.5"/>
		<line class="st2" x1="199.1" y1="0.5" x2="199.1" y2="674.5"/>
		<line class="st2" x1="224.1" y1="0.5" x2="224.1" y2="674.5"/>
		<line class="st2" x1="249.1" y1="0.5" x2="249.1" y2="674.5"/>
		<line class="st2" x1="274.1" y1="0.5" x2="274.1" y2="674.5"/>
	</g>
	<path class="st3" d="M336.8,301.5c26.2,0,55.8-18,55.8-67.6c0-47.8-32.4-86.5-55.8-102.7c-22.5,16.3-55.8,54.9-55.8,102.7
		C280.9,283.5,311.5,301.5,336.8,301.5 M336.8,561c126.1,0,242.4-95.5,242.4-242.4c0-132.5-95.5-212.5-166.7-206.3l11.7,11.7
		c17.2,18.9,45.1,65.8,45.1,117.1c0,82.9-64,135.2-132.5,135.2c-67.6,0-131.5-52.3-131.5-135.2c1-43.1,16.9-84.5,45-117.1l11.7-11.7
		c-71.2-6.2-167.6,73.9-167.6,206.3C94.4,465.7,211.5,561,336.8,561 M336.8,637.6C189,637.6,16.9,523.2,16.9,324.9
		c0-187.4,128.9-288.3,240.6-288.3c31.5,0,67.6,8.1,79.3,15.3c11.7-7.2,47.8-15.3,79.3-15.3c112.7,0,240.6,100.9,240.6,288.3
		C656.6,523.2,484.5,637.6,336.8,637.6z"/>
	<g class="st4">
		<circle class="st5" cx="337.5" cy="337.5" r="337"/>
		<circle class="st5" cx="337.5" cy="337.5" r="337"/>
		<ellipse class="st5" cx="337.5" cy="337.5" rx="312.9" ry="312.4"/>
		<circle class="st5" cx="337.5" cy="337.5" r="287.3"/>
		<circle class="st5" cx="337.5" cy="337.5" r="262.5"/>
		<circle class="st5" cx="336.3" cy="338.7" r="237.2"/>
		<circle class="st5" cx="336.6" cy="337.5" r="162.2"/>
		<circle class="st5" cx="336.6" cy="337.5" r="187.5"/>
		<circle class="st5" cx="336.6" cy="337.5" r="212.6"/>
		<circle class="st5" cx="337.5" cy="337.5" r="337"/>
		<circle class="st5" cx="337.5" cy="337.5" r="337"/>
		<circle class="st5" cx="336.6" cy="337.5" r="37.5"/>
		<circle class="st5" cx="336.6" cy="337.5" r="137.2"/>
		<circle class="st5" cx="336.6" cy="337.5" r="112.3"/>
		<circle class="st5" cx="336.6" cy="337.5" r="87.5"/>
		<circle class="st5" cx="336.6" cy="337.5" r="62.6"/>
	</g>
</g>
<g id="Layer_1_1_">
</g>
<g id="Layer_4">
</g>
<polyline class="st6" points="-220,549.9 -220,405 -78,405 -44.6,438.4 -44.6,549.9 "/>
<line class="st6" x1="-193" y1="463" x2="-123" y2="463"/>
<line class="st6" x1="-193" y1="493.9" x2="-85" y2="493.9"/>
<line class="st6" x1="-193" y1="524.8" x2="-85" y2="524.8"/>
<g>
	<polyline class="st7" points="113.5,408.2 113.5,38.2 476.1,38.2 561.5,123.6 561.5,408.2 	"/>
	<line class="st7" x1="182.4" y1="186.3" x2="361.2" y2="186.3"/>
	<line class="st7" x1="182.4" y1="265.2" x2="458.2" y2="265.2"/>
	<line class="st7" x1="182.4" y1="344.1" x2="458.2" y2="344.1"/>
	<line class="st8" x1="477.6" y1="494.9" x2="641.1" y2="453"/>
	<g>
		<path class="st8" d="M355.2,636.8c168.4,2.1,283.7-93.3,283.7-93.3l2.5-104.1c0.7-22.3-17.2-40.7-39.5-40.7
			c0,0-65.8,15.8-91.4,20.3c-21.5,3.8-39.5,17.7-39.5,39.5l0,55.7c0,0-47.3,13.3-101.9,14.9c-15.8,0.5-42.9,1.7-63.3,0
			c-54.4-4.7-101.9-14.9-101.9-14.9l0-55.7c0-21.8-18-35.7-39.5-39.5c-25.6-4.6-91.4-20.3-91.4-20.3c-22.3,0-40.2,18.4-39.5,40.7
			l2.5,104.1c0,0,115.3,95.1,283.7,93.3C328.6,636.7,346.4,636.7,355.2,636.8z"/>
		<line class="st8" x1="197.4" y1="494.9" x2="33.9" y2="453"/>
		<line class="st8" x1="641.4" y1="454.3" x2="477.3" y2="493.6"/>
	</g>
</g>
</svg>
