<?xml version="1.0" encoding="utf-8"?>
<!-- Generator: Adobe Illustrator 25.0.1, SVG Export Plug-In . SVG Version: 6.00 Build 0)  -->
<svg version="1.1" id="Layer_1" xmlns="http://www.w3.org/2000/svg" xmlns:xlink="http://www.w3.org/1999/xlink" x="0px" y="0px"
	 viewBox="0 0 675 675" style="enable-background:new 0 0 675 675;" xml:space="preserve">
<style type="text/css">
	.st0{display:none;}
	.st1{display:inline;opacity:0.2;}
	.st2{fill:none;stroke:#0033CC;stroke-width:0.25;stroke-linecap:round;stroke-linejoin:round;stroke-miterlimit:10;}
	.st3{display:inline;opacity:0.1;fill:#009CDD;enable-background:new    ;}
	.st4{display:inline;}
	.st5{fill:none;stroke:#009CDD;stroke-miterlimit:10;}
	.st6{display:inline;fill:none;stroke:#009CDD;stroke-miterlimit:10;}
	.st7{fill:#0072BC;}
</style>
<g id="Layer_2_1_" class="st0">
	<g class="st1">
		<line class="st2" x1="299.1" y1="0.5" x2="299.1" y2="674.5"/>
		<line class="st2" x1="349.1" y1="0.5" x2="349.1" y2="674.5"/>
		<line class="st2" x1="324.1" y1="0.5" x2="324.1" y2="674.5"/>
		<line class="st2" x1="374.1" y1="0.5" x2="374.1" y2="674.5"/>
		<line class="st2" x1="399.1" y1="0.5" x2="399.1" y2="674.5"/>
		<line class="st2" x1="424.1" y1="0.5" x2="424.1" y2="674.5"/>
		<line class="st2" x1="449.1" y1="0.5" x2="449.1" y2="674.5"/>
		<line class="st2" x1="474.1" y1="0.5" x2="474.1" y2="674.5"/>
		<line class="st2" x1="499.1" y1="0.5" x2="499.1" y2="674.5"/>
		<line class="st2" x1="524.1" y1="0.5" x2="524.1" y2="674.5"/>
		<line class="st2" x1="549.1" y1="0.5" x2="549.1" y2="674.5"/>
		<line class="st2" x1="624.1" y1="0.5" x2="624.1" y2="674.5"/>
		<line class="st2" x1="649.1" y1="0.5" x2="649.1" y2="674.5"/>
		<line class="st2" x1="674.1" y1="0.5" x2="674.1" y2="674.5"/>
		<line class="st2" x1="24.1" y1="0.5" x2="24.1" y2="674.5"/>
		<line class="st2" x1="49.1" y1="0.5" x2="49.1" y2="674.5"/>
		<line class="st2" x1="74.1" y1="0.5" x2="74.1" y2="674.5"/>
		<line class="st2" x1="99.1" y1="0.5" x2="99.1" y2="674.5"/>
		<line class="st2" x1="124.1" y1="0.5" x2="124.1" y2="674.5"/>
		<line class="st2" x1="149.1" y1="0.5" x2="149.1" y2="674.5"/>
		<line class="st2" x1="174.1" y1="0.5" x2="174.1" y2="674.5"/>
		<line class="st2" x1="199.1" y1="0.5" x2="199.1" y2="674.5"/>
		<line class="st2" x1="224.1" y1="0.5" x2="224.1" y2="674.5"/>
		<line class="st2" x1="249.1" y1="0.5" x2="249.1" y2="674.5"/>
		<line class="st2" x1="274.1" y1="0.5" x2="274.1" y2="674.5"/>
	</g>
	<path class="st3" d="M336.8,301.5c26.2,0,55.8-18,55.8-67.6c0-47.8-32.4-86.5-55.8-102.7c-22.5,16.3-55.8,54.9-55.8,102.7
		C280.9,283.5,311.5,301.5,336.8,301.5 M336.8,561c126.1,0,242.4-95.5,242.4-242.4c0-132.5-95.5-212.5-166.7-206.3l11.7,11.7
		c17.2,18.9,45.1,65.8,45.1,117.1c0,82.9-64,135.2-132.5,135.2c-67.6,0-131.5-52.3-131.5-135.2c1-43.1,16.9-84.5,45-117.1l11.7-11.7
		c-71.2-6.2-167.6,73.9-167.6,206.3C94.4,465.7,211.5,561,336.8,561 M336.8,637.6C189,637.6,16.9,523.2,16.9,324.9
		c0-187.4,128.9-288.3,240.6-288.3c31.5,0,67.6,8.1,79.3,15.3c11.7-7.2,47.8-15.3,79.3-15.3c112.7,0,240.6,100.9,240.6,288.3
		C656.6,523.2,484.5,637.6,336.8,637.6z"/>
	<g class="st4">
		<circle class="st5" cx="337.5" cy="337.5" r="337"/>
		<circle class="st5" cx="337.5" cy="337.5" r="337"/>
		<ellipse class="st5" cx="337.5" cy="337.5" rx="312.9" ry="312.4"/>
		<circle class="st5" cx="337.5" cy="337.5" r="287.3"/>
		<circle class="st5" cx="337.5" cy="337.5" r="262.5"/>
		<circle class="st5" cx="336.3" cy="338.7" r="237.2"/>
		<circle class="st5" cx="336.6" cy="337.5" r="162.2"/>
		<circle class="st5" cx="336.6" cy="337.5" r="187.5"/>
		<circle class="st5" cx="336.6" cy="337.5" r="212.6"/>
		<circle class="st5" cx="337.5" cy="337.5" r="337"/>
		<circle class="st5" cx="337.5" cy="337.5" r="337"/>
		<circle class="st5" cx="336.6" cy="337.5" r="137.2"/>
		<circle class="st5" cx="336.6" cy="337.5" r="87.5"/>
		<circle class="st5" cx="336.6" cy="337.5" r="112.3"/>
	</g>
	<circle class="st6" cx="336.6" cy="337.5" r="37.5"/>
	<circle class="st6" cx="336.6" cy="337.5" r="62.6"/>
</g>
<g id="Layer_1_1_">
</g>
<g id="Layer_3">
	<g>
		<g>
			<g>
				<g>
					<path class="st7" d="M585.6,292.1c0.3-3.2,0.4-6.3,0.4-9.5c0-67.5-54.9-122.3-122.3-122.3c-14,0-28.1,2.6-41.4,7.4
						c-11.4-22.7-27.6-43-47.3-59c-31.2-25.2-70.4-39-110.8-39c-45.8,0-89.4,17.5-122.5,49.4c-31.4,30.2-50.4,70.1-53.8,113.1
						c-21.1,11.4-38.7,28-51.6,48.3c-14.2,22.4-21.7,48.3-21.7,74.8c0,77.5,63.1,140.5,140.5,140.5h250.6v-23.7H155.1
						c-64.4,0-116.8-52.4-116.8-116.8c0-22.1,6.2-43.6,18-62.2c11.7-18.5,28.4-33.3,48.1-42.9l6.3-3.1l0.3-7.1
						c1.6-39.5,18.4-76.4,47-104c28.7-27.6,66.4-42.8,106.1-42.8c34.9,0.1,69,12.1,95.9,33.9c19.9,16.1,35.5,37,45.4,60.5l4.8,11.6
						l11.3-5.5c13.3-6.4,27.8-9.8,42.2-9.8c54.4,0,98.7,44.3,98.7,98.7c0,5-0.5,10.2-1.4,16.5l-1.8,11.2l11.1,2.3
						c37.4,7.6,64.7,40.8,64.7,79.1c0,35.5-23.1,65.7-55,76.4v24.7c45.2-11.4,78.7-52.4,78.7-101
						C658.5,345.9,628.4,305.7,585.6,292.1z"/>
				</g>
			</g>
		</g>
	</g>
</g>
<g id="Layer_4">
</g>
<g>
	<g>
		<g>
			<g>
				<g>
					<g>
						<g>
							<g>
								<g>
									<path class="st7" d="M469.3,595.8c-1.5,0-3.2-0.3-4.8-0.9l-36.5-15c-6.3-2.6-9.4-9.8-6.7-16.1l3.8-9.5
										c-2.1-1.8-4-3.8-6-5.8l-9.5,4c-3.1,1.2-6.4,1.2-9.5,0c-3.1-1.2-5.5-3.7-6.7-6.6l-15.2-36.5c-2.6-6.3,0.3-13.5,6.6-16.3
										l9.5-4c-0.2-2.8-0.2-5.5,0-8.3l-9.5-3.8c-6.3-2.6-9.4-9.8-6.7-16.1l15-36.5c1.2-3.1,3.7-5.5,6.6-6.7c3.1-1.2,6.4-1.2,9.5,0
										l9.5,3.8c1.8-2.1,3.8-4,5.8-6l-4-9.5c-2.6-6.3,0.3-13.5,6.6-16.3l36.5-15.2c3.1-1.2,6.4-1.2,9.5,0c3.1,1.2,5.5,3.7,6.7,6.6
										l4,9.5c2.8-0.2,5.5-0.2,8.3,0l3.8-9.5c1.2-3.1,3.7-5.5,6.6-6.7c3.1-1.2,6.4-1.2,9.5,0l36.5,15c6.3,2.6,9.4,9.8,6.7,16.1
										l-3.8,9.5c2.1,1.8,4,3.8,6,5.8l9.5-4c6.3-2.6,13.5,0.5,16.1,6.6l15.2,36.5c1.2,3.1,1.2,6.4,0,9.5c-1.2,3.1-3.7,5.5-6.6,6.7
										l-9.5,4c0.2,2.8,0.2,5.5,0,8.3l9.5,3.8c6.3,2.6,9.4,9.8,6.7,16.1l-15,36.5c-2.6,6.3-9.8,9.4-16.1,6.7l-9.5-3.8
										c-1.8,2.1-3.8,4-5.8,6l4,9.5c2.6,6.3-0.3,13.5-6.6,16.3l-36.5,15.2c-3.1,1.2-6.4,1.2-9.5,0c-3.1-1.2-5.5-3.7-6.7-6.6
										l-4-9.5c-2.8,0.2-5.5,0.2-8.3,0l-3.8,9.5c-1.2,3.1-3.7,5.5-6.6,6.7C472.5,595.5,470.8,595.8,469.3,595.8z M448.9,561.7
										l13.6,5.7l2.6-6.6c2.1-5.2,7.7-8.3,13.3-7.5c6.9,0.9,13.6,0.9,20.5-0.2c5.7-0.9,11,2.1,13.3,7.4l2.6,6.6l13.6-5.7l-2.6-6.6
										c-2.1-5.2-0.5-11.3,4-14.7c5.5-4,10.4-9,14.4-14.6c3.4-4.6,9.4-6.3,14.7-4.1l6.6,2.6l5.7-13.6l-6.6-2.6
										c-5.2-2.1-8.4-7.7-7.5-13.3c0.9-6.9,0.9-13.6-0.2-20.5c-0.9-5.7,2.1-11,7.4-13.3l6.6-2.6l-5.7-13.5l-6.6,2.6
										c-5.2,2.1-11.3,0.5-14.7-4c-4-5.5-9-10.4-14.6-14.4c-4.6-3.4-6.3-9.4-4.1-14.7l2.6-6.6l-13.5-5.5l-2.6,6.6
										c-2.1,5.2-7.7,8.3-13.3,7.5c-6.9-0.9-13.6-0.9-20.5,0.2c-5.7,0.9-11-2.1-13.3-7.4l-2.6-6.6l-13.6,5.7l2.6,6.6
										c2.1,5.2,0.5,11.3-4,14.7c-5.5,4-10.4,8.9-14.4,14.4c-3.4,4.6-9.4,6.3-14.7,4.1l-6.6-2.6l-5.7,13.6l6.6,2.6
										c5.2,2.1,8.4,7.7,7.5,13.3c-0.9,6.9-0.9,13.6,0.2,20.5c0.9,5.7-2.1,11-7.4,13.3l-6.6,2.6l5.7,13.6l6.6-2.6
										c5.2-2.1,11.3-0.5,14.7,4c4,5.5,9,10.4,14.6,14.4c4.6,3.4,6.3,9.4,4.1,14.7L448.9,561.7z"/>
								</g>
							</g>
						</g>
					</g>
				</g>
			</g>
		</g>
	</g>
	<g>
		<g>
			<g>
				<g>
					<g>
						<g>
							<g>
								<g>
									<path class="st7" d="M488.4,537.8c-6.7,0-13.5-1.2-20.2-4c-13.2-5.5-23.3-15.6-29-28.7c-5.5-13.2-5.5-27.6-0.2-40.8
										c5.4-13.2,15.6-23.3,28.7-29c13.2-5.5,27.6-5.5,40.8-0.2c27.1,11.2,40.2,42.3,29,69.5l0,0
										C529.2,525.4,509.3,537.8,488.4,537.8z M488.4,456.1c-3.8,0-7.4,0.8-11,2.1c-7.1,2.9-12.4,8.4-15.3,15.5
										c-2.9,7.1-2.9,14.7,0.2,21.8c2.9,7.1,8.4,12.4,15.5,15.3c14.6,6,31.1-0.9,37.3-15.5c6-14.6-0.9-31.1-15.5-37.3
										C495.8,456.8,492.1,456.1,488.4,456.1z M526.1,500.1L526.1,500.1L526.1,500.1z"/>
								</g>
							</g>
						</g>
					</g>
				</g>
			</g>
		</g>
	</g>
</g>
</svg>
